<?xml version="1.0" encoding="utf-8"?>
<!-- Generator: Adobe Illustrator 23.0.2, SVG Export Plug-In . SVG Version: 6.00 Build 0)  -->
<svg version="1.1" id="Layer_1" xmlns="http://www.w3.org/2000/svg" xmlns:xlink="http://www.w3.org/1999/xlink" x="0px" y="0px"
	 viewBox="0 0 288 102.24" style="enable-background:new 0 0 288 102.24;" xml:space="preserve">
<style type="text/css">
	.st0{fill:#FFFFFF;}
</style>
<g>
	<path class="st0" d="M19.22,21.04c0,0.18-0.06,0.33-0.18,0.44c-0.12,0.11-0.26,0.17-0.42,0.17c-0.3,0-0.52-0.17-0.66-0.51
		l-1.96-5.53H4.05l-2.87,5.65c-0.12,0.26-0.3,0.39-0.54,0.39c-0.16,0-0.31-0.06-0.44-0.18C0.07,21.34,0,21.19,0,21.01
		c0-0.12,0.03-0.24,0.09-0.36L10.37,0.6c0.08-0.18,0.2-0.32,0.35-0.42c0.15-0.1,0.31-0.15,0.47-0.15c0.18,0,0.35,0.06,0.5,0.18
		c0.15,0.12,0.27,0.29,0.35,0.51l7.13,20.01C19.2,20.89,19.22,21,19.22,21.04z M4.68,14.39h10.88l-4.47-12.6L4.68,14.39z"/>
	<path class="st0" d="M28.05,21.64c-0.16,0-0.29-0.07-0.38-0.2c-0.09-0.13-0.13-0.28-0.11-0.44c0-0.1,0.05-0.21,0.15-0.32
		c0.1-0.11,0.23-0.18,0.39-0.2l0.97-0.06c1.17-0.08,2.09-0.49,2.77-1.22c0.67-0.74,1.07-1.78,1.19-3.13L34.27,0.7
		c0-0.2,0.07-0.36,0.2-0.48c0.13-0.12,0.29-0.18,0.47-0.18c0.38,0,0.57,0.22,0.57,0.66l-1.24,15.44c-0.14,1.71-0.65,3.02-1.53,3.93
		c-0.88,0.91-2.1,1.41-3.67,1.51l-1,0.06H28.05z"/>
	<path class="st0" d="M41.53,20.82c-0.95-0.58-1.68-1.41-2.21-2.46c-0.52-1.06-0.79-2.29-0.79-3.7c0-1.61,0.28-3.03,0.85-4.26
		s1.35-2.19,2.37-2.87c1.02-0.68,2.2-1.03,3.55-1.03c1.91,0,3.45,0.64,4.59,1.92c1.15,1.28,1.72,3,1.72,5.15
		c0,1.61-0.28,3.03-0.85,4.26c-0.56,1.23-1.36,2.18-2.39,2.86c-1.03,0.68-2.21,1.01-3.54,1.01C43.59,21.7,42.48,21.41,41.53,20.82z
		 M48.83,18.6c0.96-1.24,1.44-2.95,1.44-5.12c0-1.81-0.44-3.22-1.33-4.23c-0.89-1.01-2.12-1.51-3.69-1.51
		c-1.65,0-2.96,0.62-3.91,1.86c-0.96,1.24-1.44,2.96-1.44,5.15c0,1.83,0.44,3.24,1.31,4.23c0.88,0.99,2.12,1.48,3.73,1.48
		C46.58,20.46,47.88,19.84,48.83,18.6z"/>
	<path class="st0" d="M67.12,7.22L66,21.04c-0.02,0.2-0.1,0.35-0.24,0.45c-0.14,0.1-0.29,0.15-0.45,0.15c-0.38,0-0.56-0.2-0.54-0.6
		l0.18-2.27c-0.48,0.95-1.16,1.67-2.04,2.18c-0.88,0.5-1.86,0.76-2.95,0.76c-1.61,0-2.85-0.41-3.7-1.22
		c-0.86-0.82-1.28-2.03-1.28-3.64c0-0.34,0.01-0.6,0.03-0.79l0.66-8.83c0.04-0.44,0.27-0.66,0.7-0.66c0.42,0,0.61,0.22,0.57,0.66
		l-0.66,8.73c-0.02,0.16-0.03,0.4-0.03,0.73c0,2.52,1.22,3.78,3.66,3.78c1.53,0,2.77-0.46,3.7-1.39c0.94-0.93,1.47-2.22,1.59-3.87
		l0.66-7.98c0.02-0.44,0.24-0.66,0.66-0.66S67.14,6.78,67.12,7.22z"/>
	<path class="st0" d="M78.96,7.1c0,0.12-0.05,0.24-0.15,0.36c-0.1,0.12-0.21,0.19-0.33,0.21l-0.82,0.09
		c-3.2,0.3-4.93,1.95-5.17,4.96l-0.66,8.22c-0.02,0.46-0.24,0.7-0.66,0.7c-0.42,0-0.62-0.23-0.6-0.7l1.12-13.81
		c0.02-0.2,0.1-0.35,0.23-0.44c0.13-0.09,0.29-0.14,0.47-0.14c0.4,0,0.59,0.2,0.57,0.6l-0.18,2.27c0.5-0.93,1.16-1.61,1.96-2.06
		c0.81-0.44,1.86-0.71,3.17-0.82l0.33-0.03h0.12c0.2,0,0.35,0.06,0.45,0.17c0.1,0.11,0.15,0.24,0.15,0.38V7.1z"/>
	<path class="st0" d="M91.55,7.72c0.87,0.82,1.3,2.02,1.3,3.61c0,0.34-0.01,0.6-0.03,0.79l-0.66,8.83c-0.02,0.24-0.1,0.42-0.24,0.53
		c-0.14,0.11-0.29,0.17-0.45,0.17c-0.18,0-0.33-0.06-0.44-0.17c-0.11-0.11-0.16-0.29-0.14-0.53l0.66-8.7
		c0.02-0.18,0.03-0.44,0.03-0.79c0-2.5-1.25-3.75-3.75-3.75c-1.59,0-2.87,0.47-3.82,1.41c-0.96,0.94-1.5,2.22-1.62,3.85l-0.66,7.98
		c-0.02,0.24-0.1,0.42-0.23,0.53c-0.13,0.11-0.28,0.17-0.44,0.17c-0.18,0-0.33-0.06-0.45-0.17c-0.12-0.11-0.17-0.29-0.15-0.53
		l1.12-13.81c0.02-0.2,0.1-0.35,0.24-0.44c0.14-0.09,0.29-0.14,0.45-0.14c0.38,0,0.57,0.2,0.57,0.6L82.64,9.4
		c0.5-0.93,1.2-1.64,2.09-2.15c0.89-0.5,1.9-0.76,3.05-0.76C89.43,6.5,90.69,6.91,91.55,7.72z"/>
	<path class="st0" d="M97.6,14.3v0.48c0,1.77,0.44,3.16,1.33,4.17c0.89,1.01,2.17,1.51,3.84,1.51c0.89,0,1.74-0.14,2.57-0.42
		c0.83-0.28,1.54-0.66,2.15-1.15c0.16-0.14,0.33-0.21,0.51-0.21c0.16,0,0.3,0.06,0.41,0.17c0.11,0.11,0.17,0.24,0.17,0.38
		c0,0.2-0.09,0.39-0.27,0.57c-0.54,0.54-1.34,1-2.39,1.36c-1.05,0.36-2.09,0.54-3.11,0.54c-2.04,0-3.64-0.63-4.82-1.9
		c-1.18-1.27-1.77-2.98-1.77-5.14c0-1.63,0.29-3.06,0.86-4.29c0.57-1.23,1.39-2.18,2.46-2.86c1.07-0.67,2.33-1.01,3.78-1.01
		c1.91,0,3.36,0.56,4.35,1.68c0.99,1.12,1.48,2.79,1.48,5c0,0.36-0.1,0.64-0.29,0.83c-0.19,0.19-0.43,0.29-0.71,0.29H97.6z
		 M99.52,9.1c-0.98,0.95-1.58,2.29-1.8,4.02h10.16c0.08-1.79-0.28-3.15-1.09-4.06c-0.81-0.92-1.93-1.38-3.39-1.38
		C101.79,7.68,100.5,8.15,99.52,9.1z"/>
	<path class="st0" d="M124.49,6.77c0.16,0,0.3,0.06,0.42,0.17c0.12,0.11,0.18,0.26,0.18,0.44c0,0.1-0.03,0.21-0.09,0.33l-9.97,18.98
		c-0.14,0.26-0.36,0.39-0.66,0.39c-0.16,0-0.3-0.04-0.42-0.12c-0.12-0.08-0.18-0.19-0.18-0.33c0-0.08,0.03-0.17,0.09-0.27l2.51-4.74
		l-5.2-13.93c-0.04-0.16-0.06-0.26-0.06-0.3c0-0.18,0.06-0.33,0.18-0.44c0.12-0.11,0.26-0.17,0.42-0.17c0.3,0,0.51,0.15,0.63,0.45
		l4.74,13.18l6.89-13.3C124.1,6.88,124.27,6.77,124.49,6.77z"/>
	<path class="st0" d="M142,7.01c0.09,0.1,0.14,0.23,0.14,0.39c0,0.16-0.05,0.29-0.14,0.39c-0.09,0.1-0.2,0.15-0.32,0.15h-4.11
		l-0.66,8.52c-0.02,0.16-0.03,0.38-0.03,0.66c0,1.07,0.26,1.89,0.77,2.48c0.51,0.58,1.22,0.88,2.13,0.88c0.32,0,0.59-0.02,0.82-0.05
		c0.22-0.03,0.38-0.05,0.48-0.05c0.32,0,0.48,0.21,0.48,0.63c0,0.22-0.13,0.38-0.39,0.48c-0.26,0.1-0.75,0.15-1.45,0.15
		c-1.25,0-2.25-0.39-2.99-1.18c-0.75-0.79-1.12-1.86-1.12-3.23c0-0.26,0.01-0.46,0.03-0.6l0.66-8.7h-2.45
		c-0.16,0-0.29-0.05-0.38-0.15c-0.09-0.1-0.14-0.24-0.14-0.42c0-0.14,0.05-0.26,0.14-0.36c0.09-0.1,0.21-0.15,0.35-0.15h2.57
		l0.3-4.05c0.02-0.16,0.09-0.3,0.21-0.42c0.12-0.12,0.27-0.18,0.45-0.18c0.18,0,0.33,0.06,0.45,0.18c0.12,0.12,0.17,0.28,0.15,0.48
		l-0.3,3.99h3.99C141.8,6.86,141.91,6.91,142,7.01z"/>
	<path class="st0" d="M146.03,20.82c-0.95-0.58-1.68-1.41-2.21-2.46c-0.52-1.06-0.79-2.29-0.79-3.7c0-1.61,0.28-3.03,0.85-4.26
		c0.56-1.23,1.35-2.19,2.37-2.87c1.02-0.68,2.2-1.03,3.55-1.03c1.91,0,3.45,0.64,4.59,1.92c1.15,1.28,1.72,3,1.72,5.15
		c0,1.61-0.28,3.03-0.85,4.26c-0.56,1.23-1.36,2.18-2.39,2.86c-1.03,0.68-2.21,1.01-3.54,1.01
		C148.09,21.7,146.98,21.41,146.03,20.82z M153.33,18.6c0.96-1.24,1.44-2.95,1.44-5.12c0-1.81-0.44-3.22-1.33-4.23
		c-0.89-1.01-2.12-1.51-3.69-1.51c-1.65,0-2.96,0.62-3.91,1.86c-0.96,1.24-1.44,2.96-1.44,5.15c0,1.83,0.44,3.24,1.31,4.23
		c0.88,0.99,2.12,1.48,3.73,1.48C151.08,20.46,152.38,19.84,153.33,18.6z"/>
	<path class="st0" d="M178.43,7.01c0.1,0.1,0.14,0.22,0.12,0.36l-1.09,13.57c-0.06,0.46-0.28,0.7-0.66,0.7
		c-0.46,0-0.66-0.23-0.6-0.7l1.03-13h-7.19L169,20.98c0,0.22-0.06,0.39-0.18,0.5c-0.12,0.11-0.26,0.17-0.42,0.17
		c-0.18,0-0.34-0.06-0.47-0.17c-0.13-0.11-0.2-0.28-0.2-0.5l1.03-13.03h-2.45c-0.16,0-0.29-0.06-0.38-0.17
		c-0.09-0.11-0.14-0.25-0.14-0.41c0-0.14,0.05-0.26,0.14-0.36c0.09-0.1,0.21-0.15,0.35-0.15h2.57l0.06-0.88
		c0.14-1.95,0.68-3.39,1.62-4.29c0.94-0.91,2.36-1.41,4.28-1.51l0.51-0.03h0.06c0.16,0,0.29,0.06,0.38,0.17s0.14,0.24,0.14,0.38
		c0,0.12-0.06,0.24-0.17,0.36c-0.11,0.12-0.27,0.19-0.47,0.21l-0.88,0.06c-1.35,0.08-2.36,0.48-3.02,1.19
		c-0.66,0.72-1.05,1.81-1.15,3.28l-0.09,1.06h7.92C178.2,6.86,178.33,6.91,178.43,7.01z M179.14,1.03c0.21,0.2,0.32,0.47,0.32,0.82
		c0,0.32-0.11,0.58-0.32,0.79c-0.21,0.2-0.47,0.3-0.77,0.3c-0.32,0-0.59-0.1-0.8-0.3c-0.21-0.2-0.32-0.46-0.32-0.79
		c0-0.34,0.11-0.61,0.32-0.82c0.21-0.2,0.48-0.3,0.8-0.3C178.67,0.73,178.93,0.83,179.14,1.03z"/>
	<path class="st0" d="M193.37,7.72c0.87,0.82,1.3,2.02,1.3,3.61c0,0.34-0.01,0.6-0.03,0.79l-0.66,8.83
		c-0.02,0.24-0.1,0.42-0.24,0.53c-0.14,0.11-0.29,0.17-0.45,0.17c-0.18,0-0.33-0.06-0.44-0.17c-0.11-0.11-0.16-0.29-0.14-0.53
		l0.66-8.7c0.02-0.18,0.03-0.44,0.03-0.79c0-2.5-1.25-3.75-3.75-3.75c-1.59,0-2.87,0.47-3.82,1.41c-0.96,0.94-1.5,2.22-1.62,3.85
		l-0.66,7.98c-0.02,0.24-0.1,0.42-0.23,0.53c-0.13,0.11-0.28,0.17-0.44,0.17c-0.18,0-0.33-0.06-0.45-0.17
		c-0.12-0.11-0.17-0.29-0.15-0.53l1.12-13.81c0.02-0.2,0.1-0.35,0.24-0.44c0.14-0.09,0.29-0.14,0.45-0.14c0.38,0,0.57,0.2,0.57,0.6
		l-0.21,2.24c0.5-0.93,1.2-1.64,2.09-2.15c0.89-0.5,1.9-0.76,3.05-0.76C191.24,6.5,192.5,6.91,193.37,7.72z"/>
	<path class="st0" d="M212.02,0.57l-1.57,20.37c-0.02,0.24-0.1,0.42-0.24,0.53c-0.14,0.11-0.29,0.17-0.45,0.17
		c-0.18,0-0.33-0.06-0.45-0.17c-0.12-0.11-0.17-0.29-0.15-0.53l0.18-2.09c-0.5,0.89-1.21,1.58-2.12,2.09
		c-0.91,0.5-1.88,0.76-2.93,0.76c-1.23,0-2.32-0.29-3.26-0.88c-0.95-0.58-1.68-1.41-2.21-2.48c-0.52-1.07-0.79-2.31-0.79-3.72
		c0-1.61,0.29-3.03,0.86-4.26c0.57-1.23,1.38-2.18,2.4-2.86c1.03-0.67,2.22-1.01,3.57-1.01c1.23,0,2.3,0.28,3.2,0.83
		c0.91,0.55,1.57,1.33,2,2.31l0.7-9.04c0.02-0.2,0.1-0.35,0.24-0.45c0.14-0.1,0.29-0.15,0.45-0.15C211.84,0,212.04,0.19,212.02,0.57
		z M208.33,18.59c0.95-1.25,1.42-2.97,1.42-5.17c0-1.83-0.43-3.24-1.3-4.22c-0.87-0.98-2.12-1.47-3.75-1.47
		c-1.65,0-2.95,0.62-3.9,1.86c-0.95,1.24-1.42,2.93-1.42,5.06c0,1.83,0.44,3.26,1.33,4.28c0.89,1.02,2.12,1.53,3.69,1.53
		C206.07,20.46,207.38,19.84,208.33,18.59z"/>
	<path class="st0" d="M237.37,0.36c0.1,0.12,0.15,0.26,0.15,0.42c0,0.14-0.05,0.27-0.15,0.39c-0.1,0.12-0.22,0.18-0.36,0.18h-10.88
		l-0.7,8.73h10.15c0.16,0,0.3,0.06,0.41,0.18c0.11,0.12,0.17,0.26,0.17,0.42c0,0.12-0.05,0.24-0.15,0.36
		c-0.1,0.12-0.22,0.18-0.36,0.18h-10.31l-0.79,9.82c-0.02,0.18-0.09,0.32-0.2,0.42s-0.25,0.15-0.41,0.15c-0.18,0-0.34-0.07-0.47-0.2
		c-0.13-0.13-0.2-0.3-0.2-0.5l1.6-20.13c0.04-0.42,0.28-0.63,0.73-0.63h11.36C237.14,0.18,237.27,0.24,237.37,0.36z"/>
	<path class="st0" d="M250.15,11.18c0,0.3-0.01,0.53-0.03,0.69l-0.72,9.16c-0.02,0.2-0.09,0.35-0.2,0.45
		c-0.11,0.1-0.25,0.15-0.41,0.15c-0.2,0-0.37-0.07-0.5-0.2c-0.13-0.13-0.19-0.31-0.17-0.53l0.12-2.03c-0.46,0.91-1.1,1.6-1.92,2.09
		c-0.82,0.48-1.76,0.73-2.83,0.73c-1.47,0-2.67-0.39-3.6-1.16c-0.93-0.78-1.39-1.78-1.39-3.01c0-1.09,0.3-1.95,0.89-2.58
		c0.59-0.63,1.56-1.1,2.89-1.39c1.33-0.29,3.11-0.44,5.35-0.44h1.06l0.09-1.18c0.02-0.18,0.03-0.43,0.03-0.76
		c0-1.19-0.28-2.06-0.83-2.61c-0.56-0.55-1.42-0.83-2.58-0.83c-1.71,0-3.45,0.58-5.2,1.75c-0.08,0.06-0.18,0.09-0.3,0.09
		c-0.14,0-0.26-0.07-0.35-0.21c-0.09-0.14-0.14-0.29-0.14-0.45c0-0.24,0.1-0.45,0.3-0.63c0.73-0.54,1.61-0.98,2.64-1.3
		c1.04-0.32,2.04-0.48,3.01-0.48C248.56,6.5,250.15,8.06,250.15,11.18z M246.98,19.04c0.93-0.93,1.44-2.12,1.54-3.57l0.09-1.18
		h-0.88c-2.02,0-3.58,0.1-4.7,0.29c-1.12,0.19-1.91,0.51-2.39,0.97c-0.47,0.45-0.71,1.09-0.71,1.92c0,0.91,0.33,1.63,0.98,2.16
		c0.66,0.53,1.54,0.8,2.64,0.8C244.91,20.43,246.05,19.97,246.98,19.04z"/>
	<path class="st0" d="M253.81,20.94l1.12-13.81c0.02-0.2,0.1-0.35,0.23-0.44c0.13-0.09,0.29-0.14,0.47-0.14
		c0.4,0,0.59,0.19,0.57,0.57l-1.12,13.81c-0.02,0.46-0.24,0.7-0.66,0.7S253.79,21.41,253.81,20.94z M255.23,2.63
		c-0.22-0.2-0.33-0.46-0.33-0.79c0-0.34,0.11-0.61,0.32-0.82c0.21-0.2,0.48-0.3,0.8-0.3s0.59,0.1,0.8,0.3
		c0.21,0.2,0.32,0.47,0.32,0.82c0,0.32-0.11,0.58-0.33,0.79c-0.22,0.2-0.48,0.3-0.79,0.3S255.45,2.83,255.23,2.63z"/>
	<path class="st0" d="M267.54,7.01c0.09,0.1,0.14,0.23,0.14,0.39c0,0.16-0.05,0.29-0.14,0.39c-0.09,0.1-0.2,0.15-0.32,0.15h-4.11
		l-0.66,8.52c-0.02,0.16-0.03,0.38-0.03,0.66c0,1.07,0.26,1.89,0.77,2.48c0.51,0.58,1.22,0.88,2.13,0.88c0.32,0,0.59-0.02,0.82-0.05
		c0.22-0.03,0.38-0.05,0.48-0.05c0.32,0,0.48,0.21,0.48,0.63c0,0.22-0.13,0.38-0.39,0.48c-0.26,0.1-0.75,0.15-1.45,0.15
		c-1.25,0-2.25-0.39-2.99-1.18c-0.75-0.79-1.12-1.86-1.12-3.23c0-0.26,0.01-0.46,0.03-0.6l0.66-8.7h-2.45
		c-0.16,0-0.29-0.05-0.38-0.15c-0.09-0.1-0.14-0.24-0.14-0.42c0-0.14,0.05-0.26,0.14-0.36c0.09-0.1,0.21-0.15,0.35-0.15h2.57
		l0.3-4.05c0.02-0.16,0.09-0.3,0.21-0.42c0.12-0.12,0.27-0.18,0.45-0.18c0.18,0,0.33,0.06,0.45,0.18c0.12,0.12,0.17,0.28,0.15,0.48
		l-0.3,3.99h3.99C267.33,6.86,267.45,6.91,267.54,7.01z"/>
	<path class="st0" d="M280.81,7.72c0.87,0.82,1.3,2.02,1.3,3.61c0,0.34-0.01,0.6-0.03,0.79l-0.66,8.83
		c-0.02,0.24-0.1,0.42-0.24,0.53c-0.14,0.11-0.29,0.17-0.45,0.17c-0.18,0-0.33-0.06-0.44-0.17c-0.11-0.11-0.16-0.29-0.14-0.53
		l0.66-8.7c0.02-0.18,0.03-0.44,0.03-0.79c0-2.5-1.25-3.75-3.75-3.75c-1.59,0-2.87,0.47-3.82,1.41c-0.96,0.94-1.5,2.22-1.62,3.85
		l-0.66,7.98c-0.02,0.24-0.1,0.42-0.23,0.53c-0.13,0.11-0.28,0.17-0.44,0.17c-0.18,0-0.33-0.06-0.45-0.17
		c-0.12-0.11-0.17-0.29-0.15-0.53l1.63-20.37c0.02-0.2,0.1-0.35,0.24-0.44c0.14-0.09,0.29-0.14,0.45-0.14
		c0.18,0,0.33,0.05,0.44,0.15c0.11,0.1,0.16,0.25,0.14,0.45l-0.7,8.73c0.5-0.91,1.2-1.61,2.09-2.1c0.89-0.49,1.89-0.74,3.02-0.74
		C278.69,6.5,279.95,6.91,280.81,7.72z"/>
	<path class="st0" d="M287.65,19.62c0.23,0.26,0.35,0.62,0.35,1.09c0,1.35-0.46,2.52-1.39,3.51c-0.18,0.18-0.37,0.27-0.57,0.27
		c-0.14,0-0.26-0.05-0.36-0.14c-0.1-0.09-0.15-0.21-0.15-0.35c0-0.18,0.08-0.35,0.24-0.51c0.28-0.28,0.49-0.56,0.62-0.85
		c0.13-0.28,0.23-0.62,0.29-1.03c-0.28-0.04-0.51-0.17-0.7-0.38c-0.18-0.21-0.27-0.48-0.27-0.8c0-0.34,0.11-0.63,0.32-0.86
		c0.21-0.23,0.48-0.35,0.8-0.35S287.42,19.35,287.65,19.62z"/>
	<path class="st0" d="M19.99,40.52c0.13,0.13,0.19,0.3,0.17,0.5l-1.6,20.34c0,0.18-0.06,0.32-0.18,0.42
		c-0.12,0.1-0.26,0.15-0.42,0.15c-0.18,0-0.34-0.07-0.47-0.2c-0.13-0.13-0.19-0.3-0.17-0.5l0.76-9.7H3.75l-0.79,9.82
		c-0.02,0.18-0.09,0.32-0.2,0.42c-0.11,0.1-0.25,0.15-0.41,0.15c-0.18,0-0.34-0.07-0.47-0.2c-0.13-0.13-0.2-0.3-0.2-0.5l1.6-20.34
		c0.02-0.18,0.09-0.32,0.2-0.42c0.11-0.1,0.25-0.15,0.41-0.15c0.18,0,0.34,0.07,0.48,0.2c0.14,0.13,0.2,0.3,0.18,0.5l-0.73,9.37
		h14.33l0.76-9.49c0-0.18,0.06-0.32,0.18-0.42c0.12-0.1,0.26-0.15,0.42-0.15C19.71,40.33,19.86,40.39,19.99,40.52z"/>
	<path class="st0" d="M24.69,54.59v0.48c0,1.77,0.44,3.16,1.33,4.17c0.89,1.01,2.17,1.51,3.84,1.51c0.89,0,1.74-0.14,2.57-0.42
		c0.83-0.28,1.54-0.66,2.15-1.15c0.16-0.14,0.33-0.21,0.51-0.21c0.16,0,0.3,0.06,0.41,0.17c0.11,0.11,0.17,0.24,0.17,0.38
		c0,0.2-0.09,0.39-0.27,0.57c-0.54,0.54-1.34,1-2.39,1.36C31.95,61.82,30.91,62,29.89,62c-2.04,0-3.64-0.63-4.82-1.9
		c-1.18-1.27-1.77-2.98-1.77-5.14c0-1.63,0.29-3.06,0.86-4.29c0.57-1.23,1.39-2.18,2.46-2.86c1.07-0.67,2.33-1.01,3.78-1.01
		c1.91,0,3.36,0.56,4.35,1.68c0.99,1.12,1.48,2.79,1.48,5c0,0.36-0.1,0.64-0.29,0.83c-0.19,0.19-0.43,0.29-0.71,0.29H24.69z
		 M26.61,49.4c-0.98,0.95-1.58,2.29-1.8,4.02h10.16c0.08-1.79-0.28-3.15-1.09-4.06c-0.81-0.92-1.93-1.38-3.39-1.38
		C28.88,47.97,27.59,48.45,26.61,49.4z"/>
	<path class="st0" d="M50.41,51.48c0,0.3-0.01,0.53-0.03,0.69l-0.73,9.16c-0.02,0.2-0.09,0.35-0.2,0.45
		c-0.11,0.1-0.25,0.15-0.41,0.15c-0.2,0-0.37-0.07-0.5-0.2c-0.13-0.13-0.19-0.31-0.17-0.53l0.12-2.03c-0.46,0.91-1.1,1.6-1.92,2.09
		C45.77,61.76,44.82,62,43.76,62c-1.47,0-2.67-0.39-3.6-1.16c-0.93-0.78-1.39-1.78-1.39-3.01c0-1.09,0.3-1.95,0.89-2.58
		c0.59-0.63,1.56-1.1,2.89-1.39c1.33-0.29,3.11-0.44,5.35-0.44h1.06l0.09-1.18c0.02-0.18,0.03-0.43,0.03-0.76
		c0-1.19-0.28-2.06-0.83-2.61c-0.55-0.55-1.42-0.83-2.58-0.83c-1.71,0-3.45,0.58-5.2,1.75c-0.08,0.06-0.18,0.09-0.3,0.09
		c-0.14,0-0.26-0.07-0.35-0.21c-0.09-0.14-0.14-0.29-0.14-0.45c0-0.24,0.1-0.45,0.3-0.63c0.73-0.54,1.61-0.98,2.64-1.3
		c1.04-0.32,2.04-0.48,3.01-0.48C48.81,46.8,50.41,48.36,50.41,51.48z M47.23,59.34c0.93-0.93,1.44-2.12,1.54-3.57l0.09-1.18h-0.88
		c-2.01,0-3.58,0.1-4.7,0.29c-1.12,0.19-1.91,0.51-2.39,0.97c-0.47,0.45-0.71,1.09-0.71,1.92c0,0.91,0.33,1.63,0.98,2.16
		c0.65,0.53,1.54,0.8,2.64,0.8C45.17,60.73,46.31,60.27,47.23,59.34z"/>
	<path class="st0" d="M54.07,61.24l1.63-20.37c0.02-0.2,0.1-0.35,0.23-0.44c0.13-0.09,0.29-0.14,0.47-0.14
		c0.4,0,0.59,0.19,0.57,0.57l-1.63,20.37c-0.02,0.46-0.24,0.7-0.66,0.7C54.25,61.94,54.05,61.71,54.07,61.24z"/>
	<path class="st0" d="M59.9,61.24l1.12-13.81c0.02-0.2,0.1-0.35,0.23-0.44c0.13-0.09,0.29-0.14,0.47-0.14c0.4,0,0.59,0.19,0.57,0.57
		l-1.12,13.81c-0.02,0.46-0.24,0.7-0.66,0.7C60.08,61.94,59.88,61.71,59.9,61.24z M61.32,42.93c-0.22-0.2-0.33-0.46-0.33-0.79
		c0-0.34,0.11-0.61,0.32-0.82c0.21-0.2,0.48-0.3,0.8-0.3c0.32,0,0.59,0.1,0.8,0.3c0.21,0.2,0.32,0.47,0.32,0.82
		c0,0.32-0.11,0.58-0.33,0.79c-0.22,0.2-0.48,0.3-0.79,0.3C61.81,43.23,61.54,43.13,61.32,42.93z"/>
	<path class="st0" d="M76.82,48.02c0.87,0.82,1.3,2.02,1.3,3.61c0,0.34-0.01,0.6-0.03,0.79l-0.66,8.83
		c-0.02,0.24-0.1,0.42-0.24,0.53c-0.14,0.11-0.29,0.17-0.45,0.17c-0.18,0-0.33-0.06-0.44-0.17c-0.11-0.11-0.16-0.29-0.14-0.53
		l0.66-8.7c0.02-0.18,0.03-0.44,0.03-0.79c0-2.5-1.25-3.75-3.75-3.75c-1.59,0-2.87,0.47-3.82,1.41c-0.96,0.94-1.5,2.22-1.62,3.85
		l-0.66,7.98c-0.02,0.24-0.1,0.42-0.23,0.53c-0.13,0.11-0.28,0.17-0.44,0.17c-0.18,0-0.33-0.06-0.45-0.17
		c-0.12-0.11-0.17-0.29-0.15-0.53l1.12-13.81c0.02-0.2,0.1-0.35,0.24-0.44c0.14-0.09,0.29-0.14,0.45-0.14c0.38,0,0.57,0.2,0.57,0.6
		L67.9,49.7c0.5-0.93,1.2-1.64,2.09-2.15c0.89-0.5,1.9-0.76,3.05-0.76C74.69,46.8,75.95,47.2,76.82,48.02z"/>
	<path class="st0" d="M95.06,47.52L94,61.09c-0.32,4.23-2.4,6.35-6.23,6.35c-1.21,0-2.32-0.16-3.32-0.47
		c-1.01-0.31-1.87-0.76-2.6-1.34c-0.22-0.2-0.33-0.42-0.33-0.66c0-0.18,0.06-0.33,0.17-0.45c0.11-0.12,0.25-0.18,0.41-0.18
		c0.14,0,0.25,0.04,0.33,0.12c0.93,0.64,1.78,1.1,2.55,1.36c0.78,0.26,1.7,0.39,2.77,0.39c3.06,0,4.73-1.69,5.02-5.08l0.21-2.81
		c-0.44,0.95-1.13,1.69-2.05,2.22c-0.93,0.53-1.94,0.8-3.05,0.8c-1.93,0-3.48-0.61-4.64-1.84c-1.16-1.23-1.74-2.87-1.74-4.93
		c0-1.55,0.28-2.91,0.85-4.08c0.56-1.17,1.36-2.08,2.4-2.72c1.04-0.64,2.24-0.97,3.61-0.97c1.23,0,2.3,0.27,3.22,0.8
		c0.92,0.53,1.59,1.29,2.01,2.28l0.21-2.33c0.04-0.46,0.27-0.7,0.7-0.7C94.91,46.86,95.1,47.08,95.06,47.52z M91.87,58.33
		c0.96-1.18,1.44-2.81,1.44-4.88c0-1.71-0.44-3.04-1.33-3.99c-0.89-0.95-2.14-1.42-3.75-1.42c-1.67,0-2.99,0.59-3.94,1.77
		c-0.96,1.18-1.44,2.81-1.44,4.88c0,1.75,0.43,3.09,1.3,4.02c0.87,0.93,2.13,1.39,3.78,1.39C89.6,60.09,90.91,59.51,91.87,58.33z"/>
	<path class="st0" d="M100.42,59.91c0.23,0.26,0.35,0.62,0.35,1.09c0,1.35-0.46,2.52-1.39,3.51c-0.18,0.18-0.37,0.27-0.57,0.27
		c-0.14,0-0.26-0.05-0.36-0.14c-0.1-0.09-0.15-0.21-0.15-0.35c0-0.18,0.08-0.35,0.24-0.51c0.28-0.28,0.49-0.56,0.62-0.85
		c0.13-0.28,0.23-0.62,0.29-1.03c-0.28-0.04-0.51-0.17-0.69-0.38c-0.18-0.21-0.27-0.48-0.27-0.8c0-0.34,0.11-0.63,0.32-0.86
		c0.21-0.23,0.48-0.35,0.8-0.35C99.92,59.52,100.19,59.65,100.42,59.91z"/>
	<path class="st0" d="M129.57,61.51c0,0.16-0.06,0.3-0.17,0.41c-0.11,0.11-0.25,0.17-0.41,0.17c-0.18,0-0.36-0.1-0.54-0.3
		l-2.72-3.11c-0.83,1.07-1.79,1.89-2.9,2.46c-1.11,0.57-2.34,0.86-3.69,0.86c-1.27,0-2.39-0.22-3.37-0.66
		c-0.98-0.44-1.73-1.07-2.27-1.89c-0.53-0.82-0.8-1.75-0.8-2.8c0-1.21,0.37-2.32,1.1-3.34c0.74-1.02,1.98-2.11,3.73-3.28l0.39-0.24
		c-1.05-1.21-1.76-2.18-2.13-2.9c-0.37-0.73-0.56-1.49-0.56-2.3c0-1.31,0.43-2.36,1.28-3.14c0.86-0.79,2-1.18,3.43-1.18
		c1.31,0,2.35,0.36,3.11,1.07c0.77,0.72,1.15,1.69,1.15,2.92c0,0.68-0.13,1.3-0.39,1.86c-0.26,0.55-0.71,1.13-1.34,1.72
		c-0.63,0.59-1.55,1.31-2.74,2.16l5.83,6.68c0.91-1.77,1.39-3.98,1.45-6.62c0.02-0.2,0.09-0.36,0.21-0.47
		c0.12-0.11,0.27-0.17,0.45-0.17c0.16,0,0.3,0.06,0.42,0.17c0.12,0.11,0.18,0.27,0.18,0.47c-0.08,2.98-0.72,5.51-1.9,7.59l3.02,3.45
		C129.52,61.21,129.57,61.35,129.57,61.51z M122.46,60.03c0.98-0.52,1.8-1.28,2.46-2.27l-6.2-7.07c-0.06,0.06-0.12,0.11-0.18,0.14
		c-0.06,0.03-0.11,0.07-0.15,0.11c-1.65,1.11-2.8,2.08-3.43,2.92c-0.63,0.84-0.95,1.78-0.95,2.83c0,1.27,0.46,2.28,1.39,3.02
		c0.93,0.75,2.19,1.12,3.78,1.12C120.39,60.82,121.48,60.56,122.46,60.03z M117.09,46.57c0.32,0.61,0.94,1.46,1.84,2.52
		c1.55-1.05,2.6-1.9,3.16-2.57c0.55-0.66,0.83-1.38,0.83-2.15c0-0.87-0.28-1.57-0.83-2.1c-0.55-0.53-1.27-0.8-2.16-0.8
		c-1.01,0-1.81,0.29-2.42,0.86c-0.6,0.57-0.91,1.34-0.91,2.28C116.61,45.31,116.77,45.95,117.09,46.57z"/>
	<path class="st0" d="M169.83,40.33c0.16,0,0.3,0.05,0.41,0.14c0.11,0.09,0.17,0.22,0.17,0.38c0,0.08-0.02,0.18-0.06,0.3
		l-8.61,20.28c-0.16,0.34-0.39,0.51-0.7,0.51c-0.16,0-0.31-0.06-0.44-0.17c-0.13-0.11-0.23-0.27-0.29-0.47l-5.08-18.77l-8.07,18.89
		c-0.14,0.32-0.38,0.48-0.73,0.48c-0.16,0-0.31-0.05-0.44-0.15c-0.13-0.1-0.22-0.25-0.26-0.45l-5.47-20.22l-0.03-0.15
		c0-0.18,0.06-0.33,0.18-0.44c0.12-0.11,0.26-0.17,0.42-0.17c0.34,0,0.55,0.17,0.63,0.51l5.08,19.13l8.1-19.04
		c0.16-0.38,0.39-0.57,0.7-0.57c0.16,0,0.3,0.05,0.42,0.15c0.12,0.1,0.2,0.24,0.24,0.42l5.11,19.01l8.19-19.28
		C169.4,40.44,169.57,40.33,169.83,40.33z"/>
	<path class="st0" d="M183.42,48.02c0.87,0.82,1.3,2.02,1.3,3.61c0,0.34-0.01,0.6-0.03,0.79l-0.66,8.83
		c-0.02,0.24-0.1,0.42-0.24,0.53c-0.14,0.11-0.29,0.17-0.45,0.17c-0.18,0-0.33-0.06-0.44-0.17c-0.11-0.11-0.16-0.29-0.14-0.53
		l0.66-8.7c0.02-0.18,0.03-0.44,0.03-0.79c0-2.5-1.25-3.75-3.75-3.75c-1.59,0-2.87,0.47-3.82,1.41c-0.96,0.94-1.5,2.22-1.62,3.85
		l-0.66,7.98c-0.02,0.24-0.1,0.42-0.23,0.53c-0.13,0.11-0.28,0.17-0.44,0.17c-0.18,0-0.33-0.06-0.45-0.17
		c-0.12-0.11-0.17-0.29-0.15-0.53l1.63-20.37c0.02-0.2,0.1-0.35,0.24-0.44c0.14-0.09,0.29-0.14,0.45-0.14
		c0.18,0,0.33,0.05,0.44,0.15c0.11,0.1,0.16,0.25,0.14,0.45l-0.7,8.73c0.5-0.91,1.2-1.61,2.09-2.1c0.89-0.49,1.89-0.74,3.02-0.74
		C181.29,46.8,182.55,47.2,183.42,48.02z"/>
	<path class="st0" d="M191.07,61.12c-0.95-0.58-1.68-1.41-2.21-2.46c-0.52-1.06-0.79-2.29-0.79-3.7c0-1.61,0.28-3.03,0.85-4.26
		c0.56-1.23,1.35-2.19,2.37-2.87c1.02-0.68,2.2-1.03,3.55-1.03c1.91,0,3.45,0.64,4.59,1.92c1.15,1.28,1.72,3,1.72,5.15
		c0,1.61-0.28,3.03-0.85,4.26c-0.56,1.23-1.36,2.18-2.39,2.86c-1.03,0.68-2.21,1.01-3.54,1.01C193.12,62,192.01,61.71,191.07,61.12z
		 M198.36,58.9c0.96-1.24,1.44-2.95,1.44-5.12c0-1.81-0.44-3.22-1.33-4.23c-0.89-1.01-2.12-1.51-3.69-1.51
		c-1.65,0-2.96,0.62-3.91,1.86c-0.96,1.24-1.44,2.96-1.44,5.15c0,1.83,0.44,3.24,1.31,4.23s2.12,1.48,3.73,1.48
		C196.11,60.76,197.41,60.14,198.36,58.9z"/>
	<path class="st0" d="M204.23,61.24l1.63-20.37c0.02-0.2,0.1-0.35,0.23-0.44c0.13-0.09,0.29-0.14,0.47-0.14
		c0.4,0,0.59,0.19,0.57,0.57l-1.63,20.37c-0.02,0.46-0.24,0.7-0.66,0.7S204.21,61.71,204.23,61.24z"/>
	<path class="st0" d="M211.09,54.59v0.48c0,1.77,0.44,3.16,1.33,4.17c0.89,1.01,2.17,1.51,3.84,1.51c0.89,0,1.74-0.14,2.57-0.42
		c0.83-0.28,1.54-0.66,2.15-1.15c0.16-0.14,0.33-0.21,0.51-0.21c0.16,0,0.3,0.06,0.41,0.17c0.11,0.11,0.17,0.24,0.17,0.38
		c0,0.2-0.09,0.39-0.27,0.57c-0.54,0.54-1.34,1-2.39,1.36c-1.05,0.36-2.08,0.54-3.11,0.54c-2.03,0-3.64-0.63-4.82-1.9
		c-1.18-1.27-1.77-2.98-1.77-5.14c0-1.63,0.29-3.06,0.86-4.29c0.57-1.23,1.39-2.18,2.46-2.86c1.07-0.67,2.33-1.01,3.78-1.01
		c1.91,0,3.36,0.56,4.35,1.68s1.48,2.79,1.48,5c0,0.36-0.1,0.64-0.29,0.83c-0.19,0.19-0.43,0.29-0.71,0.29H211.09z M213.01,49.4
		c-0.98,0.95-1.58,2.29-1.8,4.02h10.15c0.08-1.79-0.28-3.15-1.09-4.06c-0.81-0.92-1.93-1.38-3.38-1.38
		C215.28,47.97,213.99,48.45,213.01,49.4z"/>
	<path class="st0" d="M236.64,48.02c0.87,0.82,1.3,2.02,1.3,3.61c0,0.34-0.01,0.6-0.03,0.79l-0.66,8.83
		c-0.02,0.24-0.1,0.42-0.24,0.53c-0.14,0.11-0.29,0.17-0.45,0.17c-0.18,0-0.33-0.06-0.44-0.17c-0.11-0.11-0.16-0.29-0.14-0.53
		l0.66-8.7c0.02-0.18,0.03-0.44,0.03-0.79c0-2.5-1.25-3.75-3.75-3.75c-1.59,0-2.87,0.47-3.82,1.41c-0.96,0.94-1.5,2.22-1.62,3.85
		l-0.66,7.98c-0.02,0.24-0.1,0.42-0.23,0.53c-0.13,0.11-0.28,0.17-0.44,0.17c-0.18,0-0.33-0.06-0.45-0.17
		c-0.12-0.11-0.17-0.29-0.15-0.53l1.12-13.81c0.02-0.2,0.1-0.35,0.24-0.44c0.14-0.09,0.29-0.14,0.45-0.14c0.38,0,0.57,0.2,0.57,0.6
		l-0.21,2.24c0.5-0.93,1.2-1.64,2.09-2.15c0.89-0.5,1.9-0.76,3.05-0.76C234.52,46.8,235.78,47.2,236.64,48.02z"/>
	<path class="st0" d="M242.69,54.59v0.48c0,1.77,0.44,3.16,1.33,4.17c0.89,1.01,2.17,1.51,3.84,1.51c0.89,0,1.74-0.14,2.57-0.42
		c0.83-0.28,1.54-0.66,2.15-1.15c0.16-0.14,0.33-0.21,0.51-0.21c0.16,0,0.3,0.06,0.41,0.17c0.11,0.11,0.17,0.24,0.17,0.38
		c0,0.2-0.09,0.39-0.27,0.57c-0.54,0.54-1.34,1-2.39,1.36c-1.05,0.36-2.08,0.54-3.11,0.54c-2.03,0-3.64-0.63-4.82-1.9
		c-1.18-1.27-1.77-2.98-1.77-5.14c0-1.63,0.29-3.06,0.86-4.29c0.57-1.23,1.39-2.18,2.46-2.86c1.07-0.67,2.33-1.01,3.78-1.01
		c1.91,0,3.36,0.56,4.35,1.68c0.99,1.12,1.48,2.79,1.48,5c0,0.36-0.1,0.64-0.29,0.83c-0.19,0.19-0.43,0.29-0.71,0.29H242.69z
		 M244.61,49.4c-0.98,0.95-1.58,2.29-1.8,4.02h10.15c0.08-1.79-0.28-3.15-1.09-4.06c-0.81-0.92-1.93-1.38-3.38-1.38
		C246.88,47.97,245.59,48.45,244.61,49.4z"/>
	<path class="st0" d="M258.98,61.48c-0.97-0.34-1.7-0.76-2.21-1.24c-0.16-0.2-0.24-0.4-0.24-0.6c0-0.18,0.05-0.34,0.17-0.48
		c0.11-0.14,0.25-0.21,0.41-0.21c0.14,0,0.28,0.06,0.42,0.18c0.73,0.54,1.43,0.95,2.12,1.21c0.68,0.26,1.48,0.39,2.39,0.39
		c1.37,0,2.42-0.23,3.14-0.68c0.72-0.45,1.09-1.12,1.09-2.01c0-0.56-0.17-1.03-0.51-1.39c-0.34-0.36-0.76-0.65-1.25-0.86
		c-0.49-0.21-1.17-0.44-2.04-0.68c-1.01-0.3-1.82-0.59-2.43-0.86c-0.61-0.27-1.14-0.67-1.57-1.19c-0.43-0.52-0.65-1.21-0.65-2.06
		c-0.02-1.29,0.46-2.31,1.45-3.07s2.3-1.13,3.93-1.13c1.05,0,2.01,0.17,2.9,0.51c0.89,0.34,1.57,0.81,2.05,1.39
		c0.12,0.14,0.18,0.29,0.18,0.45c0,0.18-0.06,0.33-0.17,0.45c-0.11,0.12-0.26,0.18-0.44,0.18c-0.22,0-0.44-0.1-0.66-0.3
		c-0.44-0.4-1-0.74-1.68-1.01c-0.67-0.27-1.37-0.41-2.1-0.41c-1.31,0-2.31,0.24-3.01,0.73c-0.7,0.48-1.04,1.21-1.04,2.18
		c0,0.81,0.31,1.4,0.94,1.78c0.62,0.38,1.56,0.75,2.81,1.09c1.01,0.28,1.82,0.56,2.45,0.83c0.62,0.27,1.15,0.67,1.59,1.19
		c0.43,0.52,0.65,1.22,0.65,2.09c0,1.25-0.51,2.24-1.54,2.96c-1.03,0.73-2.39,1.09-4.08,1.09C260.96,62,259.95,61.83,258.98,61.48z"
		/>
	<path class="st0" d="M272.98,61.48c-0.97-0.34-1.7-0.76-2.21-1.24c-0.16-0.2-0.24-0.4-0.24-0.6c0-0.18,0.05-0.34,0.17-0.48
		c0.11-0.14,0.25-0.21,0.41-0.21c0.14,0,0.28,0.06,0.42,0.18c0.73,0.54,1.43,0.95,2.12,1.21c0.68,0.26,1.48,0.39,2.39,0.39
		c1.37,0,2.42-0.23,3.14-0.68c0.72-0.45,1.09-1.12,1.09-2.01c0-0.56-0.17-1.03-0.51-1.39c-0.34-0.36-0.76-0.65-1.25-0.86
		c-0.49-0.21-1.17-0.44-2.04-0.68c-1.01-0.3-1.82-0.59-2.43-0.86c-0.61-0.27-1.14-0.67-1.57-1.19c-0.43-0.52-0.65-1.21-0.65-2.06
		c-0.02-1.29,0.46-2.31,1.45-3.07c0.99-0.76,2.3-1.13,3.93-1.13c1.05,0,2.01,0.17,2.9,0.51c0.89,0.34,1.57,0.81,2.05,1.39
		c0.12,0.14,0.18,0.29,0.18,0.45c0,0.18-0.06,0.33-0.17,0.45c-0.11,0.12-0.26,0.18-0.44,0.18c-0.22,0-0.44-0.1-0.66-0.3
		c-0.44-0.4-1-0.74-1.68-1.01c-0.67-0.27-1.37-0.41-2.1-0.41c-1.31,0-2.31,0.24-3.01,0.73c-0.7,0.48-1.04,1.21-1.04,2.18
		c0,0.81,0.31,1.4,0.94,1.78c0.62,0.38,1.56,0.75,2.81,1.09c1.01,0.28,1.82,0.56,2.45,0.83c0.62,0.27,1.15,0.67,1.59,1.19
		c0.43,0.52,0.65,1.22,0.65,2.09c0,1.25-0.51,2.24-1.54,2.96c-1.03,0.73-2.39,1.09-4.08,1.09C274.97,62,273.95,61.83,272.98,61.48z"
		/>
	<path class="st0" d="M1.33,101.54l1.12-13.81c0.02-0.2,0.1-0.35,0.23-0.44c0.13-0.09,0.29-0.14,0.47-0.14
		c0.4,0,0.59,0.19,0.57,0.57L2.6,101.54c-0.02,0.46-0.24,0.7-0.66,0.7C1.51,102.24,1.31,102,1.33,101.54z M2.75,83.23
		c-0.22-0.2-0.33-0.46-0.33-0.79c0-0.34,0.11-0.61,0.32-0.82c0.21-0.2,0.48-0.3,0.8-0.3c0.32,0,0.59,0.1,0.8,0.3
		c0.21,0.2,0.32,0.47,0.32,0.82c0,0.32-0.11,0.58-0.33,0.79c-0.22,0.2-0.48,0.3-0.79,0.3S2.97,83.43,2.75,83.23z"/>
	<path class="st0" d="M18.25,88.32c0.87,0.82,1.3,2.02,1.3,3.61c0,0.34-0.01,0.6-0.03,0.79l-0.66,8.83
		c-0.02,0.24-0.1,0.42-0.24,0.53c-0.14,0.11-0.29,0.17-0.45,0.17c-0.18,0-0.33-0.06-0.44-0.17c-0.11-0.11-0.16-0.29-0.14-0.53
		l0.66-8.7c0.02-0.18,0.03-0.44,0.03-0.79c0-2.5-1.25-3.75-3.75-3.75c-1.59,0-2.87,0.47-3.82,1.41c-0.96,0.94-1.5,2.22-1.62,3.85
		l-0.66,7.98c-0.02,0.24-0.1,0.42-0.23,0.53c-0.13,0.11-0.28,0.17-0.44,0.17c-0.18,0-0.33-0.06-0.45-0.17
		c-0.12-0.11-0.17-0.29-0.15-0.53l1.12-13.81c0.02-0.2,0.1-0.35,0.24-0.44c0.14-0.09,0.29-0.14,0.45-0.14c0.38,0,0.57,0.2,0.57,0.6
		L9.33,90c0.5-0.93,1.2-1.64,2.09-2.15c0.89-0.5,1.9-0.76,3.05-0.76C16.12,87.09,17.38,87.5,18.25,88.32z"/>
	<path class="st0" d="M42.79,91.78c0,0.3-0.01,0.53-0.03,0.69l-0.73,9.16c-0.02,0.2-0.09,0.35-0.2,0.45s-0.25,0.15-0.41,0.15
		c-0.2,0-0.37-0.07-0.5-0.2c-0.13-0.13-0.19-0.31-0.17-0.53l0.12-2.03c-0.46,0.91-1.1,1.6-1.92,2.09c-0.82,0.48-1.76,0.73-2.83,0.73
		c-1.47,0-2.67-0.39-3.6-1.16c-0.93-0.78-1.39-1.78-1.39-3.01c0-1.09,0.3-1.95,0.89-2.58c0.59-0.63,1.56-1.1,2.89-1.39
		c1.33-0.29,3.11-0.44,5.35-0.44h1.06l0.09-1.18c0.02-0.18,0.03-0.43,0.03-0.76c0-1.19-0.28-2.06-0.83-2.61
		c-0.55-0.55-1.42-0.83-2.58-0.83c-1.71,0-3.45,0.58-5.2,1.75c-0.08,0.06-0.18,0.09-0.3,0.09c-0.14,0-0.26-0.07-0.35-0.21
		c-0.09-0.14-0.14-0.29-0.14-0.45c0-0.24,0.1-0.45,0.3-0.63c0.73-0.54,1.61-0.98,2.64-1.3c1.04-0.32,2.04-0.48,3.01-0.48
		C41.19,87.09,42.79,88.66,42.79,91.78z M39.61,99.64c0.93-0.93,1.44-2.12,1.54-3.57l0.09-1.18h-0.88c-2.01,0-3.58,0.1-4.7,0.29
		c-1.12,0.19-1.91,0.51-2.39,0.97c-0.47,0.45-0.71,1.09-0.71,1.92c0,0.91,0.33,1.63,0.98,2.16c0.65,0.53,1.54,0.8,2.64,0.8
		C37.55,101.03,38.69,100.56,39.61,99.64z"/>
	<path class="st0" d="M69.47,92.88c0.6,0.8,0.91,1.81,0.91,3.04c0,1.95-0.61,3.47-1.84,4.55c-1.23,1.08-2.97,1.62-5.23,1.62h-7.62
		c-0.24,0-0.44-0.09-0.59-0.26c-0.15-0.17-0.23-0.38-0.23-0.62l1.54-19.77c0.02-0.2,0.1-0.36,0.24-0.48
		c0.14-0.12,0.3-0.18,0.48-0.18h6.89c2.2,0,3.85,0.44,4.97,1.31s1.68,2.16,1.68,3.85c0,1.27-0.33,2.37-1,3.29
		c-0.66,0.93-1.63,1.59-2.9,1.99C67.97,91.54,68.87,92.09,69.47,92.88z M67.6,99.7c0.97-0.81,1.45-1.98,1.45-3.54
		c0-2.86-1.76-4.29-5.29-4.29h-6.89l-0.7,9.04h7.22C65.23,100.91,66.63,100.5,67.6,99.7z M56.96,90.66h6.8
		c1.75,0,3.13-0.41,4.13-1.24c1-0.83,1.5-2,1.5-3.54c0-1.29-0.44-2.27-1.33-2.93c-0.89-0.66-2.2-1-3.93-1h-6.47L56.96,90.66z"/>
	<path class="st0" d="M82.61,87.7c0,0.12-0.05,0.24-0.15,0.36c-0.1,0.12-0.21,0.19-0.33,0.21l-0.82,0.09
		c-3.2,0.3-4.93,1.95-5.17,4.96l-0.66,8.22c-0.02,0.46-0.24,0.7-0.66,0.7c-0.42,0-0.62-0.23-0.6-0.7l1.12-13.81
		c0.02-0.2,0.1-0.35,0.23-0.44c0.13-0.09,0.29-0.14,0.47-0.14c0.4,0,0.59,0.2,0.57,0.6l-0.18,2.27c0.5-0.93,1.16-1.61,1.96-2.06
		c0.81-0.44,1.86-0.71,3.17-0.82l0.33-0.03H82c0.2,0,0.35,0.06,0.45,0.17c0.1,0.11,0.15,0.24,0.15,0.38V87.7z"/>
	<path class="st0" d="M86.07,101.42c-0.95-0.58-1.68-1.41-2.21-2.46c-0.52-1.06-0.79-2.29-0.79-3.7c0-1.61,0.28-3.03,0.85-4.26
		s1.35-2.19,2.37-2.87c1.02-0.68,2.2-1.03,3.55-1.03c1.91,0,3.45,0.64,4.59,1.92c1.15,1.28,1.72,3,1.72,5.15
		c0,1.61-0.28,3.03-0.85,4.26c-0.56,1.23-1.36,2.18-2.39,2.86c-1.03,0.68-2.21,1.01-3.54,1.01C88.13,102.3,87.02,102,86.07,101.42z
		 M93.37,99.2c0.96-1.24,1.44-2.95,1.44-5.12c0-1.81-0.44-3.22-1.33-4.23c-0.89-1.01-2.12-1.51-3.69-1.51
		c-1.65,0-2.96,0.62-3.91,1.86c-0.96,1.24-1.44,2.96-1.44,5.15c0,1.83,0.44,3.24,1.31,4.23c0.88,0.99,2.12,1.48,3.73,1.48
		C91.12,101.06,92.41,100.44,93.37,99.2z"/>
	<path class="st0" d="M109.84,87.31c0.14,0,0.27,0.06,0.38,0.17c0.11,0.11,0.17,0.24,0.17,0.38c0,0.2-0.08,0.35-0.24,0.45
		l-7.53,6.23l7.31,6.71c0.16,0.16,0.24,0.31,0.24,0.45s-0.05,0.27-0.15,0.38c-0.1,0.11-0.23,0.17-0.39,0.17
		c-0.14,0-0.27-0.05-0.39-0.15l-8.19-7.22l-0.51,6.8c-0.02,0.18-0.09,0.32-0.2,0.42c-0.11,0.1-0.26,0.15-0.44,0.15
		c-0.18,0-0.34-0.07-0.47-0.21c-0.13-0.14-0.19-0.31-0.17-0.51l1.57-20.31c0.02-0.16,0.1-0.3,0.24-0.41
		c0.14-0.11,0.29-0.17,0.45-0.17c0.2,0,0.35,0.07,0.45,0.2c0.1,0.13,0.14,0.31,0.12,0.53l-1,12.94l8.37-6.86
		C109.58,87.35,109.7,87.31,109.84,87.31z"/>
	<path class="st0" d="M113.12,94.89v0.48c0,1.77,0.44,3.16,1.33,4.17c0.89,1.01,2.17,1.51,3.84,1.51c0.89,0,1.74-0.14,2.57-0.42
		c0.83-0.28,1.54-0.66,2.15-1.15c0.16-0.14,0.33-0.21,0.51-0.21c0.16,0,0.3,0.06,0.41,0.17c0.11,0.11,0.17,0.24,0.17,0.38
		c0,0.2-0.09,0.39-0.27,0.57c-0.54,0.54-1.34,1-2.39,1.36c-1.05,0.36-2.09,0.54-3.11,0.54c-2.04,0-3.64-0.63-4.82-1.9
		c-1.18-1.27-1.77-2.98-1.77-5.14c0-1.63,0.29-3.06,0.86-4.29c0.57-1.23,1.39-2.18,2.46-2.86c1.07-0.67,2.33-1.01,3.78-1.01
		c1.91,0,3.36,0.56,4.35,1.68c0.99,1.12,1.48,2.79,1.48,5c0,0.36-0.1,0.64-0.29,0.83c-0.19,0.19-0.43,0.29-0.71,0.29H113.12z
		 M115.04,89.69c-0.98,0.95-1.58,2.29-1.8,4.02h10.16c0.08-1.79-0.28-3.15-1.09-4.06c-0.81-0.92-1.93-1.38-3.39-1.38
		C117.31,88.27,116.02,88.75,115.04,89.69z"/>
	<path class="st0" d="M138.68,88.32c0.87,0.82,1.3,2.02,1.3,3.61c0,0.34-0.01,0.6-0.03,0.79l-0.66,8.83
		c-0.02,0.24-0.1,0.42-0.24,0.53c-0.14,0.11-0.29,0.17-0.45,0.17c-0.18,0-0.33-0.06-0.44-0.17c-0.11-0.11-0.16-0.29-0.14-0.53
		l0.66-8.7c0.02-0.18,0.03-0.44,0.03-0.79c0-2.5-1.25-3.75-3.75-3.75c-1.59,0-2.87,0.47-3.82,1.41c-0.96,0.94-1.5,2.22-1.62,3.85
		l-0.66,7.98c-0.02,0.24-0.1,0.42-0.23,0.53c-0.13,0.11-0.28,0.17-0.44,0.17c-0.18,0-0.33-0.06-0.45-0.17
		c-0.12-0.11-0.17-0.29-0.15-0.53l1.12-13.81c0.02-0.2,0.1-0.35,0.24-0.44c0.14-0.09,0.29-0.14,0.45-0.14c0.38,0,0.57,0.2,0.57,0.6
		L129.76,90c0.5-0.93,1.2-1.64,2.09-2.15c0.89-0.5,1.9-0.76,3.05-0.76C136.55,87.09,137.81,87.5,138.68,88.32z"/>
	<path class="st0" d="M181.78,80.63c0.16,0,0.3,0.05,0.41,0.14c0.11,0.09,0.17,0.22,0.17,0.38c0,0.08-0.02,0.18-0.06,0.3
		l-8.61,20.28c-0.16,0.34-0.39,0.51-0.7,0.51c-0.16,0-0.31-0.06-0.44-0.17c-0.13-0.11-0.23-0.27-0.29-0.47l-5.08-18.77l-8.07,18.89
		c-0.14,0.32-0.38,0.48-0.73,0.48c-0.16,0-0.31-0.05-0.44-0.15c-0.13-0.1-0.22-0.25-0.26-0.45l-5.47-20.22l-0.03-0.15
		c0-0.18,0.06-0.33,0.18-0.44c0.12-0.11,0.26-0.17,0.42-0.17c0.34,0,0.55,0.17,0.63,0.51l5.08,19.13l8.1-19.04
		c0.16-0.38,0.39-0.57,0.7-0.57c0.16,0,0.3,0.05,0.42,0.15c0.12,0.1,0.2,0.24,0.24,0.42l5.11,19.01l8.19-19.28
		C181.34,80.74,181.51,80.63,181.78,80.63z"/>
	<path class="st0" d="M185.46,101.42c-0.95-0.58-1.68-1.41-2.21-2.46c-0.52-1.06-0.79-2.29-0.79-3.7c0-1.61,0.28-3.03,0.85-4.26
		c0.56-1.23,1.35-2.19,2.37-2.87c1.02-0.68,2.2-1.03,3.55-1.03c1.91,0,3.45,0.64,4.59,1.92c1.15,1.28,1.72,3,1.72,5.15
		c0,1.61-0.28,3.03-0.85,4.26c-0.56,1.23-1.36,2.18-2.39,2.86c-1.03,0.68-2.21,1.01-3.54,1.01C187.51,102.3,186.4,102,185.46,101.42
		z M192.75,99.2c0.96-1.24,1.44-2.95,1.44-5.12c0-1.81-0.44-3.22-1.33-4.23c-0.89-1.01-2.12-1.51-3.69-1.51
		c-1.65,0-2.96,0.62-3.91,1.86c-0.96,1.24-1.44,2.96-1.44,5.15c0,1.83,0.44,3.24,1.31,4.23c0.88,0.99,2.12,1.48,3.73,1.48
		C190.5,101.06,191.8,100.44,192.75,99.2z"/>
	<path class="st0" d="M207.03,87.7c0,0.12-0.05,0.24-0.15,0.36c-0.1,0.12-0.21,0.19-0.33,0.21l-0.82,0.09
		c-3.2,0.3-4.93,1.95-5.17,4.96l-0.66,8.22c-0.02,0.46-0.24,0.7-0.66,0.7s-0.62-0.23-0.6-0.7l1.12-13.81
		c0.02-0.2,0.1-0.35,0.23-0.44c0.13-0.09,0.29-0.14,0.47-0.14c0.4,0,0.59,0.2,0.57,0.6l-0.18,2.27c0.5-0.93,1.16-1.61,1.96-2.06
		c0.81-0.44,1.86-0.71,3.17-0.82l0.33-0.03h0.12c0.2,0,0.35,0.06,0.45,0.17c0.1,0.11,0.15,0.24,0.15,0.38V87.7z"/>
	<path class="st0" d="M208.53,101.54l1.63-20.37c0.02-0.2,0.1-0.35,0.23-0.44c0.13-0.09,0.29-0.14,0.47-0.14
		c0.4,0,0.59,0.19,0.57,0.57l-1.63,20.37c-0.02,0.46-0.24,0.7-0.66,0.7C208.71,102.24,208.51,102,208.53,101.54z"/>
	<path class="st0" d="M227.99,81.17l-1.57,20.37c-0.02,0.24-0.1,0.42-0.24,0.53c-0.14,0.11-0.29,0.17-0.45,0.17
		c-0.18,0-0.33-0.06-0.45-0.17c-0.12-0.11-0.17-0.29-0.15-0.53l0.18-2.09c-0.5,0.89-1.21,1.58-2.12,2.09
		c-0.91,0.5-1.88,0.76-2.93,0.76c-1.23,0-2.32-0.29-3.26-0.88c-0.95-0.58-1.68-1.41-2.21-2.48c-0.52-1.07-0.79-2.31-0.79-3.72
		c0-1.61,0.29-3.03,0.86-4.26c0.57-1.23,1.37-2.18,2.4-2.86c1.03-0.67,2.22-1.01,3.57-1.01c1.23,0,2.3,0.28,3.2,0.83
		c0.91,0.55,1.57,1.33,1.99,2.31l0.7-9.04c0.02-0.2,0.1-0.35,0.24-0.45c0.14-0.1,0.29-0.15,0.45-0.15
		C227.82,80.6,228.01,80.79,227.99,81.17z M224.3,99.18c0.95-1.25,1.42-2.97,1.42-5.17c0-1.83-0.43-3.24-1.3-4.22
		c-0.87-0.98-2.12-1.47-3.75-1.47c-1.65,0-2.95,0.62-3.9,1.86c-0.95,1.24-1.42,2.93-1.42,5.06c0,1.83,0.44,3.26,1.33,4.28
		c0.89,1.02,2.12,1.53,3.69,1.53C222.05,101.06,223.36,100.43,224.3,99.18z"/>
	<path class="st0" d="M231.09,101.9c-0.22-0.22-0.33-0.51-0.33-0.88c0-0.36,0.11-0.65,0.33-0.88c0.22-0.22,0.5-0.33,0.85-0.33
		c0.32,0,0.59,0.11,0.82,0.33c0.22,0.22,0.33,0.51,0.33,0.88c0,0.36-0.11,0.65-0.33,0.88c-0.22,0.22-0.49,0.33-0.82,0.33
		C231.6,102.24,231.31,102.12,231.09,101.9z"/>
</g>
</svg>
