<?xml version="1.0" encoding="utf-8"?>
<!-- Generator: Adobe Illustrator 23.0.4, SVG Export Plug-In . SVG Version: 6.00 Build 0)  -->
<svg version="1.1" id="Layer_1" xmlns="http://www.w3.org/2000/svg" xmlns:xlink="http://www.w3.org/1999/xlink" x="0px" y="0px"
	 viewBox="0 0 144 96.02" style="enable-background:new 0 0 144 96.02;" xml:space="preserve">
<style type="text/css">
	.st0{fill:#FFFFFF;}
</style>
<g>
	<path class="st0" d="M12.94,14.16c0,0.12-0.04,0.22-0.12,0.3c-0.08,0.07-0.18,0.11-0.29,0.11c-0.2,0-0.35-0.11-0.45-0.35
		l-1.32-3.72H2.73L0.8,14.31c-0.08,0.18-0.2,0.26-0.37,0.26c-0.11,0-0.21-0.04-0.3-0.12S0,14.27,0,14.14c0-0.08,0.02-0.16,0.06-0.24
		L6.98,0.41c0.05-0.12,0.13-0.22,0.23-0.28c0.1-0.07,0.21-0.1,0.32-0.1c0.12,0,0.23,0.04,0.34,0.12c0.1,0.08,0.18,0.2,0.23,0.35
		l4.8,13.47C12.93,14.07,12.94,14.14,12.94,14.16z M3.15,9.69h7.33L7.47,1.2L3.15,9.69z"/>
	<path class="st0" d="M18.89,14.57c-0.11,0-0.19-0.04-0.25-0.13s-0.08-0.19-0.07-0.29c0-0.07,0.03-0.14,0.1-0.21
		s0.16-0.12,0.26-0.13l0.65-0.04c0.79-0.05,1.41-0.33,1.86-0.82s0.72-1.2,0.8-2.11l0.83-10.36c0-0.14,0.04-0.24,0.13-0.33
		c0.09-0.08,0.19-0.12,0.32-0.12c0.26,0,0.39,0.15,0.39,0.45l-0.83,10.4c-0.09,1.15-0.44,2.03-1.03,2.65s-1.41,0.95-2.47,1.02
		l-0.67,0.04h-0.02V14.57z"/>
	<path class="st0" d="M28.11,14.02c-0.64-0.39-1.13-0.95-1.49-1.66c-0.35-0.71-0.53-1.54-0.53-2.49c0-1.09,0.19-2.04,0.57-2.87
		s0.91-1.47,1.6-1.93c0.69-0.46,1.48-0.69,2.39-0.69c1.29,0,2.32,0.43,3.09,1.29c0.77,0.86,1.16,2.02,1.16,3.47
		c0,1.09-0.19,2.04-0.57,2.87s-0.92,1.47-1.61,1.92c-0.69,0.45-1.49,0.68-2.38,0.68C29.49,14.61,28.75,14.42,28.11,14.02z
		 M33.03,12.53C33.67,11.7,34,10.55,34,9.08c0-1.22-0.3-2.17-0.9-2.85c-0.6-0.68-1.43-1.02-2.48-1.02c-1.11,0-1.99,0.42-2.64,1.25
		s-0.97,1.99-0.97,3.47c0,1.23,0.29,2.18,0.89,2.85c0.59,0.66,1.43,1,2.51,1C31.51,13.78,32.38,13.36,33.03,12.53z"/>
	<path class="st0" d="M45.48,4.86l-0.75,9.3c-0.01,0.14-0.07,0.24-0.16,0.31c-0.1,0.07-0.2,0.1-0.31,0.1
		c-0.26,0-0.38-0.14-0.37-0.41l0.12-1.53c-0.33,0.64-0.78,1.13-1.37,1.47s-1.25,0.51-1.98,0.51c-1.09,0-1.92-0.27-2.49-0.82
		c-0.58-0.55-0.87-1.37-0.87-2.45c0-0.23,0.01-0.41,0.02-0.53l0.45-5.94c0.03-0.3,0.18-0.45,0.47-0.45s0.41,0.15,0.39,0.45
		l-0.45,5.88c-0.01,0.11-0.02,0.27-0.02,0.49c0,1.7,0.82,2.54,2.46,2.54c1.03,0,1.86-0.31,2.49-0.94c0.63-0.62,0.99-1.49,1.07-2.6
		l0.45-5.37c0.01-0.3,0.16-0.45,0.45-0.45C45.35,4.42,45.49,4.57,45.48,4.86z"/>
	<path class="st0" d="M53.58,4.78c0,0.08-0.03,0.16-0.1,0.24s-0.14,0.13-0.22,0.14l-0.55,0.06c-2.16,0.2-3.32,1.32-3.48,3.34
		l-0.45,5.54c-0.01,0.31-0.16,0.47-0.45,0.47c-0.28,0-0.42-0.16-0.41-0.47l0.75-9.3c0.01-0.14,0.06-0.23,0.15-0.29
		s0.19-0.09,0.32-0.09c0.27,0,0.4,0.14,0.39,0.41l-0.12,1.53c0.34-0.62,0.78-1.09,1.32-1.38c0.54-0.3,1.25-0.48,2.14-0.55l0.22-0.02
		h0.08c0.14,0,0.24,0.04,0.3,0.11s0.1,0.16,0.1,0.25L53.58,4.78L53.58,4.78z"/>
	<path class="st0" d="M62.19,5.2c0.58,0.55,0.88,1.36,0.88,2.43c0,0.23-0.01,0.41-0.02,0.53L62.6,14.1
		c-0.01,0.16-0.07,0.28-0.16,0.36s-0.2,0.11-0.31,0.11c-0.12,0-0.22-0.04-0.29-0.11s-0.11-0.19-0.09-0.36l0.45-5.86
		c0.01-0.12,0.02-0.3,0.02-0.53c0-1.68-0.84-2.52-2.52-2.52c-1.07,0-1.93,0.32-2.57,0.95s-1.01,1.5-1.09,2.59l-0.45,5.37
		c-0.01,0.16-0.06,0.28-0.15,0.36c-0.09,0.07-0.19,0.11-0.3,0.11c-0.12,0-0.22-0.04-0.3-0.11c-0.08-0.07-0.12-0.19-0.1-0.36
		l0.75-9.3c0.01-0.14,0.07-0.23,0.16-0.29s0.2-0.09,0.31-0.09c0.26,0,0.39,0.14,0.39,0.41l-0.14,1.51c0.34-0.62,0.81-1.11,1.4-1.44
		c0.6-0.34,1.28-0.51,2.06-0.51C60.76,4.38,61.61,4.65,62.19,5.2z"/>
	<path class="st0" d="M66.4,9.63v0.33c0,1.19,0.3,2.13,0.9,2.81s1.46,1.02,2.58,1.02c0.6,0,1.17-0.09,1.73-0.28
		c0.56-0.19,1.04-0.45,1.45-0.77c0.11-0.09,0.22-0.14,0.35-0.14c0.11,0,0.2,0.04,0.27,0.11s0.11,0.16,0.11,0.25
		c0,0.14-0.06,0.26-0.18,0.39C73.24,13.7,72.7,14,72,14.25c-0.71,0.24-1.4,0.37-2.1,0.37c-1.37,0-2.45-0.43-3.25-1.28
		c-0.79-0.85-1.19-2.01-1.19-3.46c0-1.1,0.19-2.06,0.58-2.89s0.94-1.47,1.66-1.92s1.57-0.68,2.54-0.68c1.29,0,2.27,0.38,2.93,1.13
		s1,1.88,1,3.37c0,0.24-0.06,0.43-0.19,0.56s-0.29,0.19-0.48,0.19L66.4,9.63L66.4,9.63z M67.69,6.13c-0.66,0.64-1.06,1.54-1.21,2.71
		h6.84c0.05-1.21-0.19-2.12-0.73-2.74s-1.3-0.93-2.28-0.93C69.22,5.17,68.35,5.49,67.69,6.13z"/>
	<path class="st0" d="M84.64,4.56c0.11,0,0.2,0.04,0.29,0.11c0.08,0.07,0.12,0.17,0.12,0.29c0,0.07-0.02,0.14-0.06,0.22l-6.72,12.78
		c-0.1,0.18-0.24,0.26-0.45,0.26c-0.11,0-0.2-0.03-0.28-0.08s-0.12-0.13-0.12-0.22c0-0.05,0.02-0.12,0.06-0.18l1.69-3.19l-3.5-9.38
		c-0.03-0.11-0.04-0.18-0.04-0.2c0-0.12,0.04-0.22,0.12-0.29s0.18-0.11,0.28-0.11c0.2,0,0.35,0.1,0.43,0.31l3.2,8.87L84.3,4.8
		C84.38,4.63,84.49,4.56,84.64,4.56z"/>
	<path class="st0" d="M96.44,4.72c0.06,0.07,0.09,0.16,0.09,0.26c0,0.11-0.03,0.2-0.09,0.26c-0.06,0.07-0.13,0.1-0.21,0.1h-2.77
		l-0.45,5.74c-0.01,0.11-0.02,0.26-0.02,0.45c0,0.72,0.17,1.28,0.52,1.67s0.82,0.59,1.44,0.59c0.22,0,0.4-0.01,0.55-0.03
		c0.15-0.02,0.26-0.03,0.33-0.03c0.22,0,0.33,0.14,0.33,0.43c0,0.15-0.09,0.26-0.27,0.33s-0.5,0.1-0.98,0.1
		c-0.84,0-1.51-0.26-2.01-0.79s-0.75-1.25-0.75-2.18c0-0.18,0.01-0.31,0.02-0.41l0.45-5.86h-1.65c-0.11,0-0.19-0.03-0.25-0.1
		S90.6,5.09,90.6,4.97c0-0.09,0.03-0.18,0.09-0.24c0.06-0.07,0.14-0.1,0.23-0.1h1.73l0.2-2.73c0.01-0.11,0.06-0.2,0.14-0.28
		c0.08-0.08,0.18-0.12,0.3-0.12s0.22,0.04,0.31,0.12c0.08,0.08,0.12,0.19,0.1,0.33l-0.2,2.69h2.69C96.3,4.62,96.37,4.65,96.44,4.72z
		"/>
	<path class="st0" d="M99.29,14.02c-0.64-0.39-1.13-0.95-1.49-1.66c-0.35-0.71-0.53-1.54-0.53-2.49c0-1.09,0.19-2.04,0.57-2.87
		s0.91-1.47,1.6-1.93c0.69-0.46,1.48-0.69,2.39-0.69c1.29,0,2.32,0.43,3.09,1.29s1.16,2.02,1.16,3.47c0,1.09-0.19,2.04-0.57,2.87
		s-0.92,1.47-1.61,1.92s-1.49,0.68-2.38,0.68C100.67,14.61,99.93,14.42,99.29,14.02z M104.21,12.53c0.64-0.83,0.97-1.98,0.97-3.45
		c0-1.22-0.3-2.17-0.9-2.85s-1.43-1.02-2.48-1.02c-1.11,0-1.99,0.42-2.64,1.25c-0.64,0.83-0.97,1.99-0.97,3.47
		c0,1.23,0.29,2.18,0.89,2.85c0.59,0.66,1.43,1,2.51,1C102.69,13.78,103.56,13.36,104.21,12.53z"/>
	<path class="st0" d="M121.11,4.72c0.07,0.07,0.09,0.15,0.08,0.24l-0.73,9.14c-0.04,0.31-0.19,0.47-0.45,0.47
		c-0.31,0-0.45-0.16-0.41-0.47l0.69-8.75h-4.84l-0.69,8.77c0,0.15-0.04,0.26-0.12,0.34s-0.18,0.11-0.28,0.11
		c-0.12,0-0.23-0.04-0.32-0.11s-0.13-0.19-0.13-0.34l0.69-8.77h-1.65c-0.11,0-0.19-0.04-0.25-0.11s-0.09-0.17-0.09-0.27
		c0-0.09,0.03-0.18,0.09-0.24c0.06-0.07,0.14-0.1,0.23-0.1h1.73l0.04-0.59c0.09-1.32,0.46-2.28,1.09-2.89s1.59-0.95,2.88-1.02
		l0.35-0.02h0.04c0.11,0,0.19,0.04,0.25,0.11s0.09,0.16,0.09,0.25c0,0.08-0.04,0.16-0.11,0.24s-0.18,0.13-0.31,0.14l-0.59,0.04
		c-0.91,0.05-1.59,0.32-2.03,0.8c-0.45,0.48-0.71,1.22-0.77,2.21l-0.06,0.71h5.33C120.95,4.62,121.04,4.65,121.11,4.72z
		 M121.59,0.69c0.14,0.14,0.21,0.32,0.21,0.55c0,0.22-0.07,0.39-0.21,0.53s-0.32,0.2-0.52,0.2c-0.22,0-0.4-0.07-0.54-0.2
		c-0.14-0.14-0.21-0.31-0.21-0.53c0-0.23,0.07-0.41,0.21-0.55s0.32-0.2,0.54-0.2C121.27,0.49,121.44,0.56,121.59,0.69z"/>
	<path class="st0" d="M131.31,5.2c0.58,0.55,0.88,1.36,0.88,2.43c0,0.23-0.01,0.41-0.02,0.53l-0.45,5.94
		c-0.01,0.16-0.07,0.28-0.16,0.36s-0.2,0.11-0.31,0.11c-0.12,0-0.22-0.04-0.29-0.11c-0.07-0.07-0.11-0.19-0.09-0.36l0.45-5.86
		c0.01-0.12,0.02-0.3,0.02-0.53c0-1.68-0.84-2.52-2.52-2.52c-1.07,0-1.93,0.32-2.57,0.95s-1.01,1.5-1.09,2.59l-0.45,5.37
		c-0.01,0.16-0.06,0.28-0.15,0.36c-0.09,0.07-0.19,0.11-0.3,0.11c-0.12,0-0.22-0.04-0.3-0.11s-0.12-0.19-0.1-0.36l0.75-9.3
		c0.01-0.14,0.07-0.23,0.16-0.29c0.09-0.06,0.2-0.09,0.31-0.09c0.26,0,0.39,0.14,0.39,0.41l-0.14,1.51c0.34-0.62,0.81-1.11,1.4-1.44
		c0.6-0.34,1.28-0.51,2.06-0.51C129.87,4.38,130.72,4.65,131.31,5.2z"/>
	<path class="st0" d="M144,0.39l-1.06,13.72c-0.01,0.16-0.07,0.28-0.16,0.36c-0.09,0.07-0.2,0.11-0.3,0.11
		c-0.12,0-0.22-0.04-0.31-0.11c-0.08-0.07-0.12-0.19-0.1-0.36l0.12-1.4c-0.34,0.6-0.81,1.06-1.42,1.4s-1.27,0.51-1.97,0.51
		c-0.83,0-1.56-0.2-2.2-0.59s-1.13-0.95-1.49-1.67c-0.35-0.72-0.53-1.55-0.53-2.5c0-1.09,0.19-2.04,0.58-2.87s0.93-1.47,1.62-1.92
		s1.49-0.68,2.4-0.68c0.83,0,1.55,0.19,2.16,0.56s1.06,0.89,1.34,1.56l0.47-6.08c0.01-0.14,0.07-0.24,0.16-0.31s0.2-0.1,0.3-0.1
		C143.88,0,144.01,0.13,144,0.39z M141.52,12.52c0.64-0.84,0.96-2,0.96-3.48c0-1.23-0.29-2.18-0.88-2.84
		c-0.58-0.66-1.42-0.99-2.52-0.99c-1.11,0-1.99,0.42-2.63,1.25s-0.96,1.97-0.96,3.41c0,1.23,0.3,2.19,0.9,2.88
		c0.6,0.69,1.42,1.03,2.48,1.03C140,13.78,140.88,13.36,141.52,12.52z"/>
	<path class="st0" d="M10.6,27.38c0.07,0.08,0.1,0.18,0.1,0.28c0,0.09-0.03,0.18-0.1,0.26c-0.07,0.08-0.15,0.12-0.24,0.12H3.03
		l-0.47,5.88H9.4c0.11,0,0.2,0.04,0.28,0.12c0.07,0.08,0.11,0.18,0.11,0.28c0,0.08-0.03,0.16-0.1,0.24
		c-0.07,0.08-0.15,0.12-0.24,0.12H2.5l-0.53,6.61c-0.01,0.12-0.06,0.22-0.13,0.28c-0.08,0.07-0.17,0.1-0.28,0.1
		c-0.12,0-0.23-0.04-0.32-0.13s-0.13-0.2-0.13-0.34L2.2,27.68c0.03-0.28,0.19-0.43,0.49-0.43h7.65
		C10.45,27.26,10.54,27.3,10.6,27.38z"/>
	<path class="st0" d="M19.36,34.67c0,0.2-0.01,0.36-0.02,0.47l-0.49,6.17c-0.01,0.14-0.06,0.24-0.13,0.31s-0.17,0.1-0.27,0.1
		c-0.14,0-0.25-0.04-0.34-0.13s-0.13-0.21-0.11-0.36l0.08-1.36c-0.31,0.61-0.74,1.08-1.29,1.4c-0.55,0.33-1.18,0.49-1.9,0.49
		c-0.99,0-1.8-0.26-2.42-0.78s-0.94-1.2-0.94-2.02c0-0.73,0.2-1.31,0.6-1.74c0.4-0.43,1.05-0.74,1.94-0.94c0.9-0.2,2.1-0.3,3.6-0.3
		h0.71l0.06-0.79c0.01-0.12,0.02-0.29,0.02-0.51c0-0.8-0.19-1.39-0.56-1.76c-0.37-0.37-0.95-0.56-1.74-0.56
		c-1.15,0-2.32,0.39-3.5,1.18c-0.05,0.04-0.12,0.06-0.2,0.06c-0.1,0-0.17-0.05-0.23-0.14s-0.09-0.2-0.09-0.31
		c0-0.16,0.07-0.3,0.2-0.43c0.49-0.37,1.08-0.66,1.78-0.87c0.7-0.22,1.37-0.33,2.02-0.33C18.29,31.51,19.36,32.56,19.36,34.67z
		 M17.22,39.96c0.62-0.62,0.97-1.42,1.04-2.4l0.06-0.79h-0.59c-1.36,0-2.41,0.06-3.16,0.19c-0.75,0.13-1.29,0.35-1.61,0.65
		c-0.32,0.31-0.48,0.74-0.48,1.29c0,0.61,0.22,1.1,0.66,1.45c0.44,0.36,1.03,0.54,1.78,0.54C15.83,40.89,16.6,40.58,17.22,39.96z"/>
	<path class="st0" d="M21.96,41.24l0.75-9.3c0.01-0.14,0.06-0.23,0.15-0.29c0.09-0.06,0.19-0.09,0.32-0.09
		c0.27,0,0.4,0.13,0.39,0.39l-0.75,9.3c-0.01,0.31-0.16,0.47-0.45,0.47C22.09,41.71,21.95,41.55,21.96,41.24z M22.92,28.91
		c-0.15-0.14-0.22-0.31-0.22-0.53c0-0.23,0.07-0.41,0.21-0.55s0.32-0.2,0.54-0.2c0.22,0,0.4,0.07,0.54,0.2
		c0.14,0.14,0.21,0.32,0.21,0.55c0,0.22-0.07,0.39-0.22,0.53c-0.15,0.14-0.33,0.2-0.53,0.2S23.07,29.04,22.92,28.91z"/>
	<path class="st0" d="M31.33,31.86c0.06,0.07,0.09,0.16,0.09,0.26c0,0.11-0.03,0.2-0.09,0.26s-0.13,0.1-0.21,0.1h-2.77l-0.45,5.74
		c-0.01,0.11-0.02,0.26-0.02,0.45c0,0.72,0.17,1.28,0.52,1.67s0.82,0.59,1.44,0.59c0.22,0,0.4-0.01,0.55-0.03s0.26-0.03,0.33-0.03
		c0.22,0,0.33,0.14,0.33,0.43c0,0.15-0.09,0.26-0.27,0.33c-0.18,0.07-0.5,0.1-0.98,0.1c-0.84,0-1.51-0.26-2.01-0.79
		c-0.5-0.53-0.75-1.25-0.75-2.18c0-0.18,0.01-0.31,0.02-0.41l0.45-5.86h-1.65c-0.11,0-0.19-0.03-0.25-0.1s-0.09-0.16-0.09-0.28
		c0-0.09,0.03-0.18,0.09-0.24c0.06-0.07,0.14-0.1,0.23-0.1h1.73l0.2-2.73c0.01-0.11,0.06-0.2,0.14-0.28s0.18-0.12,0.3-0.12
		c0.12,0,0.22,0.04,0.31,0.12c0.08,0.08,0.12,0.19,0.1,0.33l-0.2,2.69h2.69C31.2,31.76,31.27,31.79,31.33,31.86z"/>
	<path class="st0" d="M40.4,32.34c0.58,0.55,0.88,1.36,0.88,2.43c0,0.23-0.01,0.41-0.02,0.53l-0.45,5.94
		c-0.01,0.16-0.07,0.28-0.16,0.36c-0.09,0.07-0.2,0.11-0.31,0.11c-0.12,0-0.22-0.04-0.29-0.11s-0.11-0.19-0.09-0.36l0.45-5.86
		c0.01-0.12,0.02-0.3,0.02-0.53c0-1.68-0.84-2.52-2.52-2.52c-1.07,0-1.93,0.32-2.57,0.95s-1.01,1.5-1.09,2.59l-0.45,5.37
		c-0.01,0.16-0.06,0.28-0.15,0.36c-0.09,0.07-0.19,0.11-0.3,0.11c-0.12,0-0.22-0.04-0.3-0.11c-0.08-0.07-0.12-0.19-0.1-0.36
		l1.1-13.72c0.01-0.14,0.07-0.23,0.16-0.29c0.09-0.06,0.2-0.09,0.3-0.09c0.12,0,0.22,0.03,0.3,0.1c0.07,0.07,0.1,0.17,0.09,0.31
		l-0.47,5.88c0.34-0.61,0.81-1.08,1.4-1.41c0.6-0.33,1.28-0.5,2.04-0.5C38.97,31.51,39.82,31.79,40.4,32.34z"/>
	<path class="st0" d="M45.15,40.34c0.16,0.18,0.23,0.42,0.23,0.73c0,0.91-0.31,1.7-0.94,2.36c-0.12,0.12-0.25,0.18-0.39,0.18
		c-0.1,0-0.18-0.03-0.24-0.09c-0.07-0.06-0.1-0.14-0.1-0.23c0-0.12,0.05-0.24,0.16-0.35c0.19-0.19,0.33-0.38,0.42-0.57
		c0.09-0.19,0.15-0.42,0.19-0.69c-0.19-0.03-0.35-0.11-0.47-0.25c-0.12-0.14-0.18-0.32-0.18-0.54c0-0.23,0.07-0.42,0.21-0.58
		c0.14-0.16,0.32-0.23,0.54-0.23C44.81,40.08,44.99,40.17,45.15,40.34z"/>
	<path class="st0" d="M66.03,27.29c0.09,0.09,0.13,0.2,0.11,0.34l-1.08,13.7c0,0.12-0.04,0.22-0.12,0.28s-0.18,0.1-0.29,0.1
		c-0.12,0-0.23-0.04-0.32-0.13s-0.13-0.2-0.11-0.34l0.51-6.53h-9.65l-0.53,6.61c-0.01,0.12-0.06,0.22-0.13,0.28
		c-0.07,0.07-0.17,0.1-0.27,0.1c-0.12,0-0.23-0.04-0.32-0.13s-0.13-0.2-0.13-0.34l1.08-13.7c0.01-0.12,0.06-0.22,0.13-0.28
		c0.07-0.07,0.17-0.1,0.27-0.1c0.12,0,0.23,0.04,0.33,0.13c0.09,0.09,0.14,0.2,0.12,0.34l-0.49,6.31h9.65l0.51-6.39
		c0-0.12,0.04-0.22,0.12-0.28c0.08-0.07,0.18-0.1,0.29-0.1C65.84,27.16,65.94,27.2,66.03,27.29z"/>
	<path class="st0" d="M69.34,36.76v0.33c0,1.19,0.3,2.13,0.9,2.81s1.46,1.02,2.58,1.02c0.6,0,1.17-0.09,1.73-0.28
		c0.56-0.19,1.04-0.45,1.45-0.77c0.11-0.09,0.22-0.14,0.35-0.14c0.11,0,0.2,0.04,0.27,0.11s0.11,0.16,0.11,0.25
		c0,0.14-0.06,0.26-0.18,0.39c-0.37,0.37-0.9,0.67-1.61,0.92c-0.71,0.24-1.4,0.37-2.1,0.37c-1.37,0-2.45-0.43-3.25-1.28
		c-0.79-0.85-1.19-2.01-1.19-3.46c0-1.1,0.19-2.06,0.58-2.89c0.39-0.83,0.94-1.47,1.66-1.92c0.72-0.45,1.57-0.68,2.54-0.68
		c1.29,0,2.27,0.38,2.93,1.13c0.66,0.75,1,1.88,1,3.37c0,0.24-0.06,0.43-0.19,0.56s-0.29,0.19-0.48,0.19h-7.1V36.76z M70.63,33.26
		c-0.66,0.64-1.06,1.54-1.21,2.71h6.84c0.05-1.21-0.19-2.12-0.73-2.74c-0.54-0.62-1.3-0.93-2.28-0.93
		C72.16,32.3,71.29,32.62,70.63,33.26z"/>
	<path class="st0" d="M86.79,34.67c0,0.2-0.01,0.36-0.02,0.47l-0.49,6.17c-0.01,0.14-0.06,0.24-0.13,0.31s-0.17,0.1-0.27,0.1
		c-0.14,0-0.25-0.04-0.34-0.13s-0.13-0.21-0.11-0.36l0.08-1.36c-0.31,0.61-0.74,1.08-1.29,1.4c-0.55,0.33-1.18,0.49-1.9,0.49
		c-0.99,0-1.8-0.26-2.42-0.78c-0.62-0.52-0.94-1.2-0.94-2.02c0-0.73,0.2-1.31,0.6-1.74s1.05-0.74,1.94-0.94c0.9-0.2,2.1-0.3,3.6-0.3
		h0.71l0.06-0.79c0.01-0.12,0.02-0.29,0.02-0.51c0-0.8-0.19-1.39-0.56-1.76c-0.37-0.37-0.95-0.56-1.74-0.56
		c-1.15,0-2.32,0.39-3.5,1.18c-0.05,0.04-0.12,0.06-0.2,0.06c-0.1,0-0.17-0.05-0.23-0.14c-0.06-0.09-0.09-0.2-0.09-0.31
		c0-0.16,0.07-0.3,0.2-0.43c0.49-0.37,1.08-0.66,1.78-0.87c0.7-0.22,1.37-0.33,2.02-0.33C85.72,31.51,86.79,32.56,86.79,34.67z
		 M84.66,39.96c0.62-0.62,0.97-1.42,1.04-2.4l0.06-0.79h-0.59c-1.36,0-2.41,0.06-3.16,0.19c-0.75,0.13-1.29,0.35-1.61,0.65
		c-0.32,0.31-0.48,0.74-0.48,1.29c0,0.61,0.22,1.1,0.66,1.45c0.44,0.36,1.03,0.54,1.78,0.54C83.27,40.89,84.03,40.58,84.66,39.96z"
		/>
	<path class="st0" d="M89.4,41.24l1.1-13.72c0.01-0.14,0.06-0.23,0.15-0.29c0.09-0.06,0.19-0.09,0.32-0.09
		c0.27,0,0.4,0.13,0.39,0.39l-1.1,13.72c-0.01,0.31-0.16,0.47-0.45,0.47C89.52,41.71,89.38,41.55,89.4,41.24z"/>
	<path class="st0" d="M93.47,41.24l0.75-9.3c0.01-0.14,0.06-0.23,0.15-0.29c0.09-0.06,0.19-0.09,0.32-0.09
		c0.27,0,0.4,0.13,0.39,0.39l-0.75,9.3c-0.01,0.31-0.16,0.47-0.45,0.47C93.59,41.71,93.45,41.55,93.47,41.24z M94.42,28.91
		c-0.15-0.14-0.22-0.31-0.22-0.53c0-0.23,0.07-0.41,0.21-0.55s0.32-0.2,0.54-0.2s0.4,0.07,0.54,0.2c0.14,0.14,0.21,0.32,0.21,0.55
		c0,0.22-0.07,0.39-0.22,0.53c-0.15,0.14-0.33,0.2-0.53,0.2S94.57,29.04,94.42,28.91z"/>
	<path class="st0" d="M105,32.34c0.58,0.55,0.88,1.36,0.88,2.43c0,0.23-0.01,0.41-0.02,0.53l-0.45,5.94
		c-0.01,0.16-0.07,0.28-0.16,0.36c-0.09,0.07-0.2,0.11-0.31,0.11c-0.12,0-0.22-0.04-0.29-0.11s-0.11-0.19-0.09-0.36l0.45-5.86
		c0.01-0.12,0.02-0.3,0.02-0.53c0-1.68-0.84-2.52-2.52-2.52c-1.07,0-1.93,0.32-2.57,0.95s-1.01,1.5-1.09,2.59l-0.45,5.37
		c-0.01,0.16-0.06,0.28-0.15,0.36c-0.09,0.07-0.19,0.11-0.3,0.11c-0.12,0-0.22-0.04-0.3-0.11s-0.12-0.19-0.1-0.36l0.75-9.3
		c0.01-0.14,0.07-0.23,0.16-0.29c0.09-0.06,0.2-0.09,0.31-0.09c0.26,0,0.39,0.14,0.39,0.41l-0.14,1.51c0.34-0.62,0.81-1.11,1.4-1.44
		c0.6-0.34,1.28-0.51,2.06-0.51C103.57,31.51,104.41,31.79,105,32.34z"/>
	<path class="st0" d="M117.42,32l-0.71,9.14c-0.22,2.85-1.61,4.27-4.19,4.27c-0.81,0-1.56-0.11-2.24-0.32s-1.26-0.51-1.75-0.91
		c-0.15-0.14-0.22-0.28-0.22-0.45c0-0.12,0.04-0.22,0.11-0.31c0.07-0.08,0.17-0.12,0.27-0.12c0.09,0,0.17,0.03,0.22,0.08
		c0.62,0.43,1.2,0.74,1.72,0.92c0.52,0.18,1.14,0.26,1.86,0.26c2.06,0,3.19-1.14,3.38-3.42l0.14-1.89c-0.3,0.64-0.76,1.14-1.38,1.5
		c-0.62,0.36-1.31,0.54-2.06,0.54c-1.3,0-2.34-0.41-3.12-1.24c-0.78-0.83-1.17-1.93-1.17-3.32c0-1.04,0.19-1.96,0.57-2.75
		s0.92-1.4,1.62-1.83c0.7-0.43,1.51-0.65,2.43-0.65c0.83,0,1.55,0.18,2.17,0.54c0.62,0.36,1.07,0.87,1.35,1.54l0.14-1.57
		c0.03-0.31,0.18-0.47,0.47-0.47C117.31,31.55,117.44,31.7,117.42,32z M115.27,39.27c0.64-0.79,0.97-1.89,0.97-3.29
		c0-1.15-0.3-2.05-0.9-2.69s-1.44-0.96-2.52-0.96c-1.13,0-2.01,0.4-2.66,1.19c-0.64,0.79-0.97,1.89-0.97,3.29
		c0,1.18,0.29,2.08,0.88,2.71c0.58,0.62,1.43,0.94,2.54,0.94C113.74,40.47,114.62,40.07,115.27,39.27z"/>
	<path class="st0" d="M121.17,40.34c0.16,0.18,0.23,0.42,0.23,0.73c0,0.91-0.31,1.7-0.94,2.36c-0.12,0.12-0.25,0.18-0.39,0.18
		c-0.1,0-0.18-0.03-0.24-0.09c-0.07-0.06-0.1-0.14-0.1-0.23c0-0.12,0.05-0.24,0.16-0.35c0.19-0.19,0.33-0.38,0.42-0.57
		s0.15-0.42,0.19-0.69c-0.19-0.03-0.35-0.11-0.47-0.25s-0.18-0.32-0.18-0.54c0-0.23,0.07-0.42,0.21-0.58
		c0.14-0.16,0.32-0.23,0.54-0.23C120.82,40.08,121.01,40.17,121.17,40.34z"/>
	<path class="st0" d="M140.79,41.42c0,0.11-0.04,0.2-0.11,0.27s-0.17,0.11-0.27,0.11c-0.12,0-0.24-0.07-0.37-0.2l-1.83-2.1
		c-0.56,0.72-1.21,1.27-1.95,1.66c-0.75,0.39-1.57,0.58-2.48,0.58c-0.85,0-1.61-0.15-2.27-0.45s-1.17-0.72-1.53-1.27
		s-0.54-1.18-0.54-1.88c0-0.81,0.25-1.56,0.74-2.25c0.49-0.68,1.33-1.42,2.51-2.21l0.26-0.16c-0.71-0.81-1.18-1.46-1.43-1.95
		c-0.25-0.49-0.38-1-0.38-1.55c0-0.88,0.29-1.59,0.86-2.12c0.58-0.53,1.35-0.79,2.31-0.79c0.88,0,1.58,0.24,2.1,0.72
		s0.77,1.14,0.77,1.96c0,0.46-0.09,0.88-0.26,1.25c-0.18,0.37-0.48,0.76-0.91,1.16c-0.43,0.4-1.04,0.89-1.84,1.46l3.93,4.5
		c0.61-1.19,0.94-2.68,0.98-4.46c0.01-0.14,0.06-0.24,0.14-0.32c0.08-0.07,0.18-0.11,0.31-0.11c0.11,0,0.2,0.04,0.28,0.11
		s0.12,0.18,0.12,0.32c-0.05,2.01-0.48,3.71-1.28,5.11l2.04,2.32C140.76,41.22,140.79,41.31,140.79,41.42z M136,40.42
		c0.66-0.35,1.21-0.86,1.66-1.53l-4.17-4.76c-0.04,0.04-0.08,0.07-0.12,0.09s-0.07,0.04-0.1,0.07c-1.11,0.75-1.88,1.4-2.31,1.96
		c-0.43,0.56-0.64,1.2-0.64,1.9c0,0.85,0.31,1.53,0.94,2.03c0.62,0.5,1.47,0.75,2.54,0.75C134.61,40.95,135.34,40.78,136,40.42z
		 M132.39,31.36c0.22,0.41,0.63,0.98,1.24,1.7c1.04-0.71,1.75-1.28,2.13-1.73c0.37-0.45,0.56-0.93,0.56-1.44
		c0-0.58-0.19-1.05-0.56-1.41s-0.86-0.54-1.46-0.54c-0.68,0-1.22,0.19-1.63,0.58s-0.61,0.9-0.61,1.54
		C132.06,30.51,132.17,30.94,132.39,31.36z"/>
	<path class="st0" d="M21.12,54.29c0.11,0,0.2,0.03,0.27,0.09s0.11,0.15,0.11,0.25c0,0.05-0.01,0.12-0.04,0.2l-5.8,13.66
		c-0.11,0.23-0.26,0.35-0.47,0.35c-0.11,0-0.21-0.04-0.3-0.11s-0.15-0.18-0.19-0.32l-3.4-12.63L5.86,68.5
		c-0.09,0.22-0.26,0.33-0.49,0.33c-0.11,0-0.21-0.03-0.3-0.1s-0.15-0.17-0.17-0.3L1.22,54.8L1.2,54.7c0-0.12,0.04-0.22,0.12-0.29
		S1.5,54.3,1.6,54.3c0.23,0,0.37,0.11,0.43,0.35l3.42,12.88l5.45-12.82c0.11-0.26,0.26-0.39,0.47-0.39c0.11,0,0.2,0.03,0.29,0.1
		c0.08,0.07,0.14,0.16,0.16,0.28l3.44,12.8l5.52-12.98C20.83,54.37,20.95,54.29,21.12,54.29z"/>
	<path class="st0" d="M30.42,59.47c0.58,0.55,0.88,1.36,0.88,2.43c0,0.23-0.01,0.41-0.02,0.53l-0.45,5.94
		c-0.01,0.16-0.07,0.28-0.16,0.36c-0.09,0.07-0.2,0.11-0.31,0.11c-0.12,0-0.22-0.04-0.29-0.11c-0.07-0.07-0.11-0.19-0.09-0.36
		l0.45-5.86c0.01-0.12,0.02-0.3,0.02-0.53c0-1.68-0.84-2.52-2.52-2.52c-1.07,0-1.93,0.32-2.57,0.95s-1.01,1.5-1.09,2.59l-0.45,5.37
		c-0.01,0.16-0.06,0.28-0.15,0.36c-0.09,0.07-0.19,0.11-0.3,0.11c-0.12,0-0.22-0.04-0.3-0.11s-0.12-0.19-0.1-0.36l1.1-13.72
		c0.01-0.14,0.07-0.23,0.16-0.29s0.2-0.09,0.3-0.09c0.12,0,0.22,0.03,0.3,0.1c0.07,0.07,0.1,0.17,0.09,0.31l-0.47,5.88
		c0.34-0.61,0.81-1.08,1.4-1.41c0.6-0.33,1.28-0.5,2.04-0.5C28.99,58.65,29.84,58.92,30.42,59.47z"/>
	<path class="st0" d="M35.71,68.29c-0.64-0.39-1.13-0.95-1.49-1.66c-0.35-0.71-0.53-1.54-0.53-2.49c0-1.09,0.19-2.04,0.57-2.87
		c0.38-0.83,0.91-1.47,1.6-1.93s1.48-0.69,2.39-0.69c1.29,0,2.32,0.43,3.09,1.29s1.16,2.02,1.16,3.47c0,1.09-0.19,2.04-0.57,2.87
		s-0.92,1.47-1.61,1.92c-0.69,0.45-1.49,0.68-2.38,0.68C37.09,68.88,36.34,68.69,35.71,68.29z M40.62,66.8
		c0.64-0.83,0.97-1.98,0.97-3.45c0-1.22-0.3-2.17-0.9-2.85c-0.6-0.68-1.43-1.02-2.48-1.02c-1.11,0-1.99,0.42-2.64,1.25
		c-0.64,0.83-0.97,1.99-0.97,3.47c0,1.23,0.29,2.18,0.89,2.85c0.59,0.66,1.43,1,2.51,1C39.1,68.05,39.97,67.63,40.62,66.8z"/>
	<path class="st0" d="M44.71,68.37l1.1-13.72c0.01-0.14,0.06-0.23,0.15-0.29s0.19-0.09,0.32-0.09c0.27,0,0.4,0.13,0.39,0.39
		l-1.1,13.72c-0.01,0.31-0.16,0.47-0.45,0.47C44.83,68.84,44.7,68.69,44.71,68.37z"/>
	<path class="st0" d="M49.46,63.9v0.33c0,1.19,0.3,2.13,0.9,2.81c0.6,0.68,1.46,1.02,2.58,1.02c0.6,0,1.17-0.09,1.73-0.28
		s1.04-0.45,1.45-0.77c0.11-0.09,0.22-0.14,0.35-0.14c0.11,0,0.2,0.04,0.27,0.11s0.11,0.16,0.11,0.25c0,0.14-0.06,0.26-0.18,0.39
		c-0.37,0.37-0.9,0.67-1.61,0.92c-0.71,0.24-1.4,0.37-2.1,0.37c-1.37,0-2.45-0.43-3.25-1.28c-0.79-0.85-1.19-2.01-1.19-3.46
		c0-1.1,0.19-2.06,0.58-2.89c0.39-0.83,0.94-1.47,1.66-1.92c0.72-0.45,1.57-0.68,2.54-0.68c1.29,0,2.27,0.38,2.93,1.13
		s1,1.88,1,3.37c0,0.24-0.06,0.43-0.19,0.56s-0.29,0.19-0.48,0.19h-7.1V63.9z M50.76,60.4c-0.66,0.64-1.06,1.54-1.21,2.71h6.84
		c0.05-1.21-0.19-2.12-0.73-2.74c-0.54-0.62-1.3-0.93-2.28-0.93C52.29,59.44,51.41,59.76,50.76,60.4z"/>
	<path class="st0" d="M66.81,59.47c0.58,0.55,0.88,1.36,0.88,2.43c0,0.23-0.01,0.41-0.02,0.53l-0.45,5.94
		c-0.01,0.16-0.07,0.28-0.16,0.36c-0.09,0.07-0.2,0.11-0.31,0.11c-0.12,0-0.22-0.04-0.29-0.11s-0.11-0.19-0.09-0.36l0.45-5.86
		c0.01-0.12,0.02-0.3,0.02-0.53c0-1.68-0.84-2.52-2.52-2.52c-1.07,0-1.93,0.32-2.57,0.95s-1.01,1.5-1.09,2.59l-0.45,5.37
		c-0.01,0.16-0.06,0.28-0.15,0.36c-0.09,0.07-0.19,0.11-0.3,0.11c-0.12,0-0.22-0.04-0.3-0.11c-0.08-0.07-0.12-0.19-0.1-0.36
		l0.75-9.3c0.01-0.14,0.07-0.23,0.16-0.29s0.2-0.09,0.31-0.09c0.26,0,0.39,0.14,0.39,0.41l-0.14,1.51c0.34-0.62,0.81-1.11,1.4-1.44
		c0.6-0.34,1.28-0.51,2.06-0.51C65.38,58.65,66.22,58.92,66.81,59.47z"/>
	<path class="st0" d="M71.02,63.9v0.33c0,1.19,0.3,2.13,0.9,2.81s1.46,1.02,2.58,1.02c0.6,0,1.17-0.09,1.73-0.28
		s1.04-0.45,1.45-0.77c0.11-0.09,0.22-0.14,0.35-0.14c0.11,0,0.2,0.04,0.27,0.11s0.11,0.16,0.11,0.25c0,0.14-0.06,0.26-0.18,0.39
		c-0.37,0.37-0.9,0.67-1.61,0.92c-0.71,0.24-1.4,0.37-2.1,0.37c-1.37,0-2.45-0.43-3.25-1.28c-0.79-0.85-1.19-2.01-1.19-3.46
		c0-1.1,0.19-2.06,0.58-2.89c0.39-0.83,0.94-1.47,1.66-1.92c0.72-0.45,1.57-0.68,2.54-0.68c1.29,0,2.27,0.38,2.93,1.13
		s1,1.88,1,3.37c0,0.24-0.06,0.43-0.19,0.56s-0.29,0.19-0.48,0.19h-7.1V63.9z M72.31,60.4c-0.66,0.64-1.06,1.54-1.21,2.71h6.84
		c0.05-1.21-0.19-2.12-0.73-2.74c-0.54-0.62-1.3-0.93-2.28-0.93C73.84,59.44,72.97,59.76,72.31,60.4z"/>
	<path class="st0" d="M82.12,68.54c-0.65-0.23-1.15-0.51-1.49-0.83c-0.11-0.14-0.16-0.27-0.16-0.41c0-0.12,0.04-0.23,0.11-0.33
		s0.17-0.14,0.28-0.14c0.09,0,0.19,0.04,0.28,0.12c0.49,0.37,0.96,0.64,1.42,0.81c0.46,0.18,1,0.26,1.61,0.26
		c0.92,0,1.63-0.15,2.12-0.46c0.49-0.31,0.73-0.76,0.73-1.35c0-0.38-0.12-0.69-0.35-0.94c-0.23-0.24-0.51-0.44-0.84-0.58
		c-0.33-0.14-0.79-0.29-1.37-0.46c-0.68-0.2-1.22-0.4-1.64-0.58c-0.41-0.18-0.77-0.45-1.06-0.8s-0.44-0.81-0.44-1.38
		c-0.01-0.87,0.31-1.56,0.98-2.07c0.66-0.51,1.55-0.76,2.65-0.76c0.71,0,1.36,0.12,1.95,0.35c0.6,0.23,1.06,0.54,1.38,0.94
		c0.08,0.1,0.12,0.2,0.12,0.31c0,0.12-0.04,0.22-0.11,0.3c-0.08,0.08-0.17,0.12-0.3,0.12c-0.15,0-0.3-0.07-0.45-0.2
		c-0.3-0.27-0.68-0.5-1.13-0.68s-0.93-0.27-1.41-0.27c-0.88,0-1.56,0.16-2.02,0.49c-0.47,0.33-0.7,0.81-0.7,1.47
		c0,0.54,0.21,0.94,0.63,1.2c0.42,0.26,1.05,0.5,1.89,0.73c0.68,0.19,1.23,0.38,1.65,0.56c0.42,0.18,0.78,0.45,1.07,0.8
		s0.44,0.82,0.44,1.4c0,0.84-0.35,1.51-1.04,1.99c-0.69,0.49-1.61,0.73-2.75,0.73C83.45,68.88,82.77,68.77,82.12,68.54z"/>
	<path class="st0" d="M91.68,68.54c-0.65-0.23-1.15-0.51-1.49-0.83c-0.11-0.14-0.16-0.27-0.16-0.41c0-0.12,0.04-0.23,0.11-0.33
		s0.17-0.14,0.28-0.14c0.09,0,0.19,0.04,0.28,0.12c0.49,0.37,0.96,0.64,1.42,0.81c0.46,0.18,1,0.26,1.61,0.26
		c0.92,0,1.63-0.15,2.12-0.46c0.49-0.31,0.73-0.76,0.73-1.35c0-0.38-0.12-0.69-0.35-0.94c-0.23-0.24-0.51-0.44-0.84-0.58
		c-0.33-0.14-0.79-0.29-1.37-0.46c-0.68-0.2-1.22-0.4-1.64-0.58c-0.41-0.18-0.77-0.45-1.06-0.8s-0.44-0.81-0.44-1.38
		c-0.01-0.87,0.31-1.56,0.98-2.07s1.55-0.76,2.65-0.76c0.71,0,1.36,0.12,1.95,0.35c0.6,0.23,1.06,0.54,1.38,0.94
		c0.08,0.1,0.12,0.2,0.12,0.31c0,0.12-0.04,0.22-0.11,0.3c-0.08,0.08-0.17,0.12-0.3,0.12c-0.15,0-0.3-0.07-0.45-0.2
		c-0.3-0.27-0.68-0.5-1.13-0.68s-0.93-0.27-1.41-0.27c-0.88,0-1.56,0.16-2.02,0.49c-0.47,0.33-0.7,0.81-0.7,1.47
		c0,0.54,0.21,0.94,0.63,1.2c0.42,0.26,1.05,0.5,1.89,0.73c0.68,0.19,1.23,0.38,1.65,0.56c0.42,0.18,0.78,0.45,1.07,0.8
		s0.44,0.82,0.44,1.4c0,0.84-0.35,1.51-1.04,1.99c-0.69,0.49-1.61,0.73-2.75,0.73C93.02,68.88,92.33,68.77,91.68,68.54z"/>
	<path class="st0" d="M105.25,68.37l0.75-9.3c0.01-0.14,0.06-0.23,0.15-0.29c0.09-0.06,0.19-0.09,0.32-0.09
		c0.27,0,0.4,0.13,0.39,0.39l-0.75,9.3c-0.01,0.31-0.16,0.47-0.45,0.47C105.38,68.84,105.24,68.69,105.25,68.37z M106.21,56.04
		c-0.15-0.14-0.22-0.31-0.22-0.53c0-0.23,0.07-0.41,0.21-0.55s0.32-0.2,0.54-0.2s0.4,0.07,0.54,0.2c0.14,0.14,0.21,0.32,0.21,0.55
		c0,0.22-0.07,0.39-0.22,0.53s-0.33,0.2-0.53,0.2S106.36,56.18,106.21,56.04z"/>
	<path class="st0" d="M116.78,59.47c0.58,0.55,0.88,1.36,0.88,2.43c0,0.23-0.01,0.41-0.02,0.53l-0.45,5.94
		c-0.01,0.16-0.07,0.28-0.16,0.36c-0.09,0.07-0.2,0.11-0.31,0.11c-0.12,0-0.22-0.04-0.29-0.11s-0.11-0.19-0.09-0.36l0.45-5.86
		c0.01-0.12,0.02-0.3,0.02-0.53c0-1.68-0.84-2.52-2.52-2.52c-1.07,0-1.93,0.32-2.57,0.95s-1.01,1.5-1.09,2.59l-0.45,5.37
		c-0.01,0.16-0.06,0.28-0.15,0.36c-0.09,0.07-0.19,0.11-0.3,0.11c-0.12,0-0.22-0.04-0.3-0.11s-0.12-0.19-0.1-0.36l0.75-9.3
		c0.01-0.14,0.07-0.23,0.16-0.29c0.09-0.06,0.2-0.09,0.31-0.09c0.26,0,0.39,0.14,0.39,0.41l-0.14,1.51c0.34-0.62,0.81-1.11,1.4-1.44
		c0.6-0.34,1.28-0.51,2.06-0.51C115.35,58.65,116.2,58.92,116.78,59.47z"/>
	<path class="st0" d="M133.31,61.8c0,0.2-0.01,0.36-0.02,0.47l-0.49,6.17c-0.01,0.14-0.06,0.24-0.13,0.31s-0.17,0.1-0.27,0.1
		c-0.14,0-0.25-0.04-0.34-0.13s-0.13-0.21-0.11-0.36l0.08-1.36c-0.31,0.61-0.74,1.08-1.29,1.4c-0.55,0.33-1.18,0.49-1.9,0.49
		c-0.99,0-1.8-0.26-2.42-0.78c-0.62-0.52-0.94-1.2-0.94-2.02c0-0.73,0.2-1.31,0.6-1.74s1.05-0.74,1.94-0.94c0.9-0.2,2.1-0.3,3.6-0.3
		h0.71l0.06-0.79c0.01-0.12,0.02-0.29,0.02-0.51c0-0.8-0.19-1.39-0.56-1.76s-0.95-0.56-1.74-0.56c-1.15,0-2.32,0.39-3.5,1.18
		c-0.05,0.04-0.12,0.06-0.2,0.06c-0.1,0-0.17-0.05-0.23-0.14c-0.06-0.09-0.09-0.2-0.09-0.31c0-0.16,0.07-0.3,0.2-0.43
		c0.49-0.37,1.08-0.66,1.78-0.87c0.7-0.22,1.37-0.33,2.02-0.33C132.24,58.65,133.31,59.7,133.31,61.8z M131.17,67.09
		c0.62-0.62,0.97-1.42,1.04-2.4l0.06-0.79h-0.59c-1.36,0-2.41,0.06-3.16,0.19c-0.75,0.13-1.29,0.35-1.61,0.65
		c-0.32,0.31-0.48,0.74-0.48,1.29c0,0.61,0.22,1.1,0.66,1.45c0.44,0.36,1.03,0.54,1.78,0.54C129.78,68.03,130.55,67.72,131.17,67.09
		z"/>
	<path class="st0" d="M10.99,89.68c0.41,0.54,0.61,1.22,0.61,2.05c0,1.32-0.41,2.34-1.24,3.06c-0.83,0.73-2,1.09-3.52,1.09H1.71
		c-0.16,0-0.3-0.06-0.4-0.17c-0.1-0.12-0.15-0.25-0.15-0.42L2.2,81.98c0.01-0.14,0.07-0.24,0.16-0.33c0.09-0.08,0.2-0.12,0.33-0.12
		h4.64c1.48,0,2.6,0.29,3.35,0.88s1.13,1.46,1.13,2.59c0,0.85-0.22,1.59-0.67,2.22c-0.45,0.62-1.1,1.07-1.95,1.34
		C9.98,88.77,10.58,89.14,10.99,89.68z M9.73,94.27c0.65-0.54,0.98-1.34,0.98-2.38c0-1.93-1.19-2.89-3.56-2.89H2.5l-0.47,6.08H6.9
		C8.13,95.08,9.08,94.81,9.73,94.27z M2.56,88.18h4.58c1.18,0,2.11-0.28,2.78-0.83c0.67-0.56,1.01-1.35,1.01-2.38
		c0-0.87-0.3-1.53-0.9-1.97c-0.6-0.45-1.48-0.67-2.65-0.67H3.03L2.56,88.18z"/>
	<path class="st0" d="M19.98,86.19c0,0.08-0.03,0.16-0.1,0.24c-0.07,0.08-0.14,0.13-0.22,0.14l-0.55,0.06
		c-2.16,0.2-3.32,1.32-3.48,3.34l-0.45,5.54c-0.01,0.31-0.16,0.47-0.45,0.47c-0.28,0-0.42-0.16-0.41-0.47l0.75-9.3
		c0.01-0.14,0.06-0.23,0.15-0.29c0.09-0.06,0.19-0.09,0.32-0.09c0.27,0,0.4,0.14,0.39,0.41l-0.12,1.53
		c0.34-0.62,0.78-1.09,1.32-1.38c0.54-0.3,1.25-0.48,2.14-0.55l0.22-0.02h0.08c0.14,0,0.24,0.04,0.3,0.11
		c0.07,0.07,0.1,0.16,0.1,0.25v0.01H19.98z"/>
	<path class="st0" d="M22.45,95.43c-0.64-0.39-1.13-0.95-1.49-1.66c-0.35-0.71-0.53-1.54-0.53-2.49c0-1.09,0.19-2.04,0.57-2.87
		s0.91-1.47,1.6-1.93s1.48-0.69,2.39-0.69c1.29,0,2.32,0.43,3.09,1.29s1.16,2.02,1.16,3.47c0,1.09-0.19,2.04-0.57,2.87
		s-0.92,1.47-1.61,1.92s-1.49,0.68-2.38,0.68C23.83,96.02,23.09,95.82,22.45,95.43z M27.37,93.93c0.64-0.83,0.97-1.98,0.97-3.45
		c0-1.22-0.3-2.17-0.9-2.85s-1.43-1.02-2.48-1.02c-1.11,0-1.99,0.42-2.64,1.25c-0.64,0.83-0.97,1.99-0.97,3.47
		c0,1.23,0.29,2.18,0.89,2.85c0.59,0.66,1.43,1,2.51,1C25.85,95.18,26.72,94.77,27.37,93.93z"/>
	<path class="st0" d="M38.6,85.92c0.09,0,0.18,0.04,0.25,0.11s0.11,0.16,0.11,0.25c0,0.14-0.05,0.24-0.16,0.31l-5.07,4.19l4.93,4.52
		c0.11,0.11,0.16,0.21,0.16,0.31s-0.03,0.18-0.1,0.25s-0.16,0.11-0.26,0.11c-0.09,0-0.18-0.03-0.26-0.1l-5.52-4.86l-0.35,4.58
		c-0.01,0.12-0.06,0.22-0.13,0.28c-0.07,0.07-0.17,0.1-0.3,0.1s-0.23-0.05-0.32-0.14s-0.13-0.21-0.11-0.35l1.06-13.68
		c0.01-0.11,0.07-0.2,0.16-0.27s0.2-0.11,0.3-0.11c0.14,0,0.24,0.04,0.31,0.13s0.09,0.21,0.08,0.36l-0.67,8.71L38.35,86
		C38.42,85.95,38.5,85.92,38.6,85.92z"/>
	<path class="st0" d="M40.96,91.03v0.33c0,1.19,0.3,2.13,0.9,2.81c0.6,0.68,1.46,1.02,2.58,1.02c0.6,0,1.17-0.09,1.73-0.28
		s1.04-0.45,1.45-0.77c0.11-0.09,0.22-0.14,0.35-0.14c0.11,0,0.2,0.04,0.27,0.11s0.11,0.16,0.11,0.25c0,0.14-0.06,0.26-0.18,0.39
		c-0.37,0.37-0.9,0.67-1.61,0.92c-0.71,0.24-1.4,0.37-2.1,0.37c-1.37,0-2.45-0.43-3.25-1.28c-0.79-0.85-1.19-2.01-1.19-3.46
		c0-1.1,0.19-2.06,0.58-2.89c0.39-0.83,0.94-1.47,1.66-1.92s1.57-0.68,2.54-0.68c1.29,0,2.27,0.38,2.93,1.13s1,1.88,1,3.37
		c0,0.24-0.06,0.43-0.19,0.56s-0.29,0.19-0.48,0.19h-7.1V91.03z M42.25,87.53c-0.66,0.64-1.06,1.54-1.21,2.71h6.84
		c0.05-1.21-0.19-2.12-0.73-2.74c-0.54-0.62-1.3-0.93-2.28-0.93C43.78,86.57,42.91,86.89,42.25,87.53z"/>
	<path class="st0" d="M58.3,86.61c0.58,0.55,0.88,1.36,0.88,2.43c0,0.23-0.01,0.41-0.02,0.53l-0.45,5.94
		c-0.01,0.16-0.07,0.28-0.16,0.36s-0.2,0.11-0.31,0.11c-0.12,0-0.22-0.04-0.29-0.11s-0.11-0.19-0.09-0.36l0.45-5.86
		c0.01-0.12,0.02-0.3,0.02-0.53c0-1.68-0.84-2.52-2.52-2.52c-1.07,0-1.93,0.32-2.57,0.95s-1.01,1.5-1.09,2.59l-0.45,5.37
		c-0.01,0.16-0.06,0.28-0.15,0.36c-0.09,0.07-0.19,0.11-0.3,0.11c-0.12,0-0.22-0.04-0.3-0.11c-0.08-0.07-0.12-0.19-0.1-0.36
		l0.75-9.3c0.01-0.14,0.07-0.23,0.16-0.29s0.2-0.09,0.31-0.09c0.26,0,0.39,0.14,0.39,0.41l-0.14,1.51c0.34-0.62,0.81-1.11,1.4-1.44
		c0.6-0.34,1.28-0.51,2.06-0.51C56.87,85.78,57.72,86.06,58.3,86.61z"/>
	<path class="st0" d="M87.32,81.43c0.11,0,0.2,0.03,0.27,0.09s0.11,0.15,0.11,0.25c0,0.05-0.01,0.12-0.04,0.2l-5.8,13.66
		c-0.11,0.23-0.26,0.35-0.47,0.35c-0.11,0-0.21-0.04-0.3-0.11c-0.09-0.07-0.15-0.18-0.19-0.32l-3.42-12.64l-5.43,12.72
		c-0.09,0.22-0.26,0.33-0.49,0.33c-0.11,0-0.21-0.03-0.3-0.1c-0.09-0.07-0.15-0.17-0.17-0.3l-3.68-13.61l-0.02-0.1
		c0-0.12,0.04-0.22,0.12-0.29s0.18-0.11,0.28-0.11c0.23,0,0.37,0.11,0.43,0.35l3.42,12.88l5.45-12.82c0.11-0.26,0.26-0.39,0.47-0.39
		c0.11,0,0.2,0.03,0.29,0.1c0.08,0.07,0.14,0.16,0.16,0.28l3.44,12.8l5.52-12.98C87.03,81.5,87.14,81.43,87.32,81.43z"/>
	<path class="st0" d="M89.97,95.43c-0.64-0.39-1.13-0.95-1.49-1.66c-0.35-0.71-0.53-1.54-0.53-2.49c0-1.09,0.19-2.04,0.57-2.87
		s0.91-1.47,1.6-1.93c0.69-0.46,1.48-0.69,2.39-0.69c1.29,0,2.32,0.43,3.09,1.29s1.16,2.02,1.16,3.47c0,1.09-0.19,2.04-0.57,2.87
		s-0.92,1.47-1.61,1.92s-1.49,0.68-2.38,0.68C91.35,96.02,90.61,95.82,89.97,95.43z M94.88,93.93c0.64-0.83,0.97-1.98,0.97-3.45
		c0-1.22-0.3-2.17-0.9-2.85s-1.43-1.02-2.48-1.02c-1.11,0-1.99,0.42-2.64,1.25s-0.97,1.99-0.97,3.47c0,1.23,0.29,2.18,0.89,2.85
		c0.59,0.66,1.43,1,2.51,1C93.37,95.18,94.24,94.77,94.88,93.93z"/>
	<path class="st0" d="M104.63,86.19c0,0.08-0.03,0.16-0.1,0.24c-0.07,0.08-0.14,0.13-0.22,0.14l-0.55,0.06
		c-2.16,0.2-3.32,1.32-3.48,3.34l-0.45,5.54c-0.01,0.31-0.16,0.47-0.45,0.47c-0.28,0-0.42-0.16-0.41-0.47l0.75-9.3
		c0.01-0.14,0.06-0.23,0.15-0.29c0.09-0.06,0.19-0.09,0.32-0.09c0.27,0,0.4,0.14,0.39,0.41l-0.12,1.53
		c0.34-0.62,0.78-1.09,1.32-1.38c0.54-0.3,1.25-0.48,2.14-0.55l0.22-0.02h0.08c0.14,0,0.24,0.04,0.3,0.11
		c0.07,0.07,0.1,0.16,0.1,0.25v0.01H104.63z"/>
	<path class="st0" d="M105.77,95.51l1.1-13.72c0.01-0.14,0.06-0.23,0.15-0.29c0.09-0.06,0.19-0.09,0.32-0.09
		c0.27,0,0.4,0.13,0.39,0.39l-1.1,13.72c-0.01,0.31-0.16,0.47-0.45,0.47C105.89,95.98,105.76,95.82,105.77,95.51z"/>
	<path class="st0" d="M119.01,81.79l-1.06,13.72c-0.01,0.16-0.07,0.28-0.16,0.36c-0.09,0.07-0.2,0.11-0.3,0.11
		c-0.12,0-0.22-0.04-0.31-0.11s-0.12-0.19-0.1-0.36l0.12-1.4c-0.34,0.6-0.81,1.06-1.42,1.4c-0.61,0.34-1.27,0.51-1.97,0.51
		c-0.83,0-1.56-0.2-2.2-0.59s-1.13-0.95-1.49-1.67c-0.35-0.72-0.53-1.55-0.53-2.5c0-1.09,0.19-2.04,0.58-2.87s0.93-1.47,1.62-1.92
		s1.49-0.68,2.4-0.68c0.83,0,1.55,0.19,2.16,0.56c0.61,0.37,1.06,0.89,1.34,1.56l0.47-6.08c0.01-0.14,0.07-0.24,0.16-0.31
		c0.09-0.07,0.2-0.1,0.3-0.1C118.9,81.41,119.03,81.53,119.01,81.79z M116.53,93.92c0.64-0.84,0.96-2,0.96-3.48
		c0-1.23-0.29-2.18-0.88-2.84c-0.58-0.66-1.42-0.99-2.52-0.99c-1.11,0-1.99,0.42-2.63,1.25s-0.96,1.97-0.96,3.41
		c0,1.23,0.3,2.19,0.9,2.88c0.6,0.69,1.42,1.03,2.48,1.03C115.01,95.18,115.89,94.76,116.53,93.92z"/>
	<path class="st0" d="M121.24,95.75c-0.15-0.15-0.22-0.35-0.22-0.59s0.07-0.44,0.22-0.59c0.15-0.15,0.34-0.22,0.57-0.22
		c0.22,0,0.4,0.07,0.55,0.22s0.22,0.35,0.22,0.59s-0.08,0.44-0.22,0.59c-0.15,0.15-0.33,0.22-0.55,0.22
		C121.58,95.98,121.39,95.9,121.24,95.75z"/>
</g>
</svg>
