<?xml version="1.0" encoding="utf-8"?>
<!-- Generator: Adobe Illustrator 23.0.6, SVG Export Plug-In . SVG Version: 6.00 Build 0)  -->
<svg version="1.1" id="Layer_1" xmlns="http://www.w3.org/2000/svg" xmlns:xlink="http://www.w3.org/1999/xlink" x="0px" y="0px"
	 viewBox="0 0 72 72" style="enable-background:new 0 0 72 72;" xml:space="preserve">
<style type="text/css">
	.st0{fill:#FFFFFF;}
</style>
<g>
	<path class="st0" d="M65.3,72c-0.7,0-1.4-0.3-1.9-0.8L38.9,46.7c-4,2.5-8.6,3.9-13.5,3.9c-6.7,0-12.9-2.6-17.7-7.2
		c-4.8-4.7-7.5-11.1-7.6-17.8C0.1,18.8,2.7,12.4,7.4,7.6C12.1,2.8,18.4,0.1,25.2,0c6.8-0.1,13.1,2.5,17.9,7.2
		c4.8,4.7,7.5,11.1,7.6,17.8c0,5.1-1.4,9.9-4.1,14.1l24.5,24.5c1,1,1,2.7,0,3.8l-3.8,3.8C66.7,71.7,66,72,65.3,72z M25.4,5.3
		c-0.1,0-0.1,0-0.2,0c-5.3,0-10.3,2.2-14.1,6c-3.7,3.8-5.8,8.8-5.7,14.2c0,5.3,2.2,10.3,6,14.1c3.8,3.7,8.7,5.7,14,5.7
		c4.4,0,8.6-1.4,12.1-4.1c0,0,0.1-0.1,0.1-0.1c0.6-0.5,1.2-1,1.7-1.5c0,0,0.1-0.1,0.1-0.1c0,0,0.1-0.1,0.1-0.1
		c0.5-0.5,0.9-1,1.3-1.5c0,0,0.1-0.1,0.1-0.1c2.8-3.6,4.4-8,4.3-12.6c0-5.3-2.2-10.3-6-14.1C35.6,7.3,30.7,5.3,25.4,5.3z"/>
</g>
</svg>
