<?xml version="1.0" encoding="utf-8"?>
<!-- Generator: Adobe Illustrator 23.0.2, SVG Export Plug-In . SVG Version: 6.00 Build 0)  -->
<svg version="1.1" id="Layer_1" xmlns="http://www.w3.org/2000/svg" xmlns:xlink="http://www.w3.org/1999/xlink" x="0px" y="0px"
	 viewBox="0 0 144 28.8" style="enable-background:new 0 0 144 28.8;" xml:space="preserve">
<style type="text/css">
	.st0{fill:#73bf8c;} <!-- green -->
	.st1{fill:#FF8066;} <!-- coral -->
</style>
<g>
	<path class="st0" d="M5.84,18.5C5.95,18.61,6,18.76,6,18.95c0,0.23-0.09,0.4-0.26,0.52c-0.18,0.12-0.43,0.17-0.77,0.14l-0.46-0.03
		c-0.92-0.07-1.6-0.35-2.06-0.84C2,18.25,1.77,17.52,1.77,16.55v-4H0.75c-0.5,0-0.75-0.22-0.75-0.66c0-0.2,0.07-0.37,0.2-0.48
		c0.13-0.12,0.31-0.18,0.55-0.18h1.02V9.48c0-0.26,0.08-0.46,0.23-0.61s0.36-0.22,0.62-0.22c0.26,0,0.47,0.07,0.63,0.22
		c0.16,0.15,0.24,0.35,0.24,0.61v1.75h1.68c0.24,0,0.42,0.06,0.55,0.18c0.13,0.12,0.2,0.28,0.2,0.48c0,0.22-0.07,0.38-0.2,0.49
		c-0.13,0.11-0.31,0.17-0.55,0.17H3.49v4.12c0,0.53,0.11,0.92,0.33,1.17c0.22,0.25,0.56,0.39,1.01,0.43l0.48,0.03
		C5.56,18.33,5.74,18.39,5.84,18.5z"/>
	<path class="st0" d="M14.9,14.38v4.42c0,0.25-0.08,0.45-0.24,0.6c-0.16,0.15-0.37,0.22-0.63,0.22c-0.26,0-0.47-0.07-0.62-0.22
		c-0.15-0.15-0.23-0.35-0.23-0.6v-4.41c0-0.68-0.14-1.18-0.42-1.5c-0.28-0.32-0.71-0.48-1.3-0.48c-0.69,0-1.25,0.22-1.67,0.65
		c-0.42,0.43-0.63,1.01-0.63,1.74v4c0,0.25-0.08,0.45-0.23,0.6c-0.15,0.15-0.36,0.22-0.62,0.22c-0.26,0-0.47-0.07-0.63-0.22
		c-0.16-0.15-0.24-0.35-0.24-0.6V8.27c0-0.25,0.08-0.45,0.25-0.6c0.16-0.15,0.38-0.22,0.64-0.22c0.25,0,0.45,0.07,0.6,0.21
		C9.09,7.81,9.17,8,9.17,8.24v4.25c0.28-0.48,0.66-0.84,1.14-1.09c0.48-0.25,1.02-0.37,1.63-0.37C13.91,11.03,14.9,12.14,14.9,14.38
		z"/>
	<path class="st0" d="M17.16,9.12c-0.19-0.18-0.29-0.42-0.29-0.71c0-0.29,0.1-0.53,0.29-0.71c0.19-0.18,0.45-0.26,0.78-0.26
		c0.32,0,0.58,0.09,0.77,0.26c0.2,0.18,0.3,0.41,0.3,0.71c0,0.29-0.1,0.53-0.29,0.71c-0.19,0.18-0.45,0.27-0.78,0.27
		C17.62,9.39,17.35,9.3,17.16,9.12z M17.32,19.41c-0.16-0.14-0.25-0.34-0.25-0.61v-6.91c0-0.27,0.08-0.48,0.25-0.62
		c0.16-0.14,0.37-0.21,0.62-0.21c0.25,0,0.45,0.07,0.61,0.21c0.16,0.14,0.24,0.35,0.24,0.62v6.91c0,0.27-0.08,0.48-0.24,0.61
		c-0.16,0.14-0.36,0.2-0.61,0.2C17.7,19.62,17.49,19.55,17.32,19.41z"/>
	<path class="st0" d="M21.07,18.94c-0.2-0.12-0.35-0.26-0.43-0.39c-0.09-0.14-0.13-0.29-0.13-0.46c0-0.18,0.05-0.33,0.15-0.46
		c0.1-0.12,0.23-0.19,0.39-0.19c0.15,0,0.38,0.09,0.7,0.27c0.34,0.18,0.67,0.33,1,0.44c0.32,0.11,0.73,0.17,1.22,0.17
		c0.54,0,0.97-0.1,1.28-0.29c0.31-0.19,0.46-0.47,0.46-0.82c0-0.23-0.06-0.41-0.18-0.54c-0.12-0.14-0.33-0.26-0.62-0.37
		c-0.29-0.11-0.73-0.22-1.31-0.35c-1-0.22-1.72-0.51-2.15-0.88c-0.44-0.37-0.65-0.87-0.65-1.51c0-0.49,0.14-0.93,0.43-1.32
		c0.28-0.39,0.67-0.69,1.17-0.91c0.5-0.22,1.07-0.32,1.7-0.32c0.45,0,0.9,0.06,1.33,0.18c0.43,0.12,0.81,0.29,1.14,0.52
		c0.37,0.25,0.56,0.54,0.56,0.87c0,0.18-0.05,0.33-0.16,0.46c-0.11,0.12-0.24,0.19-0.38,0.19c-0.1,0-0.2-0.02-0.31-0.07
		c-0.1-0.04-0.24-0.12-0.41-0.22c-0.31-0.18-0.59-0.32-0.86-0.43c-0.27-0.1-0.6-0.15-1-0.15c-0.48,0-0.86,0.1-1.15,0.31
		c-0.29,0.2-0.43,0.48-0.43,0.83c0,0.32,0.13,0.56,0.4,0.74c0.27,0.18,0.77,0.34,1.51,0.5c0.76,0.16,1.35,0.34,1.79,0.54
		c0.43,0.2,0.74,0.46,0.93,0.76c0.19,0.3,0.28,0.68,0.28,1.15c0,0.74-0.31,1.33-0.93,1.78c-0.62,0.45-1.44,0.67-2.48,0.67
		C22.75,19.65,21.8,19.41,21.07,18.94z"/>
	<path class="st1" d="M39.4,8.56c-0.11,0.06-0.23,0.1-0.35,0.1c-0.12,0-0.44,0.01-0.95,0.04c-0.33,0.07-0.65,0.16-0.98,0.28h-0.02
		c0,0.26-0.07,0.63-0.21,1.13c0,0.17-0.04,0.45-0.11,0.83c0,0.11-0.02,0.23-0.06,0.34c-0.04,0.11-0.06,0.29-0.06,0.53
		c-0.1,0.58-0.14,0.9-0.13,0.96c0.01,0.06,0.01,0.13,0,0.23c-0.01,0.1-0.04,0.25-0.08,0.45c-0.04,0.2-0.06,0.43-0.06,0.7
		c0,0.27-0.04,0.51-0.11,0.72v0.23c0.03,0.51,0.01,0.87-0.05,1.08c-0.06,0.21-0.1,0.39-0.1,0.54c0,0.15-0.04,0.38-0.11,0.69
		c-0.07,0.31-0.09,0.68-0.06,1.11h0.13c0.35-0.03,0.54-0.04,0.56-0.03c0.02,0.01,0.12-0.01,0.29-0.05l0.34,0.02h0.21
		c0.04,0,0.13,0.05,0.28,0.16c0.14,0.11,0.24,0.21,0.3,0.31c0.1,0.1,0.13,0.2,0.1,0.29c-0.04,0.09-0.19,0.24-0.48,0.46l-0.4,0.13
		c-0.04,0.04-0.14,0.09-0.3,0.15c-0.16,0.06-0.29,0.09-0.4,0.09c-0.33,0.07-0.52,0.19-0.57,0.36c-0.06,0.11-0.4,0.16-1.02,0.13
		h-0.72l-0.4,0.13c-0.35,0.14-0.67,0.18-0.94,0.11c-0.27-0.07-0.45-0.12-0.54-0.16c-0.09-0.04-0.2-0.11-0.33-0.21
		c-0.13-0.11-0.18-0.23-0.16-0.36c0.02-0.13,0.07-0.33,0.14-0.58c0.24-0.2,0.41-0.33,0.51-0.38c0.68-0.21,1.11-0.35,1.3-0.43
		c0-0.47-0.01-0.74-0.04-0.83c0.04-0.01,0.09-0.32,0.15-0.91c0.01-0.06-0.02-0.19-0.11-0.4v-0.13c0.04-0.4,0.04-0.76-0.02-1.08
		c0-0.01,0.03-0.26,0.09-0.74c0.07-0.09,0.07-0.31,0-0.68c0.06-0.27,0.11-0.48,0.15-0.64l0.02-0.3c0-0.09,0.04-0.34,0.13-0.77v-0.21
		l0.04-0.17c0.26-1.05,0.43-1.81,0.51-2.3c-0.11,0.03-0.18,0.04-0.21,0.04l-0.7,0.11c-0.54,0.14-1.01,0.02-1.42-0.36
		c-0.35-0.48-0.36-0.89-0.02-1.23c0.21-0.18,0.54-0.31,0.98-0.38c0.38-0.13,0.63-0.22,0.74-0.28c0.14,0,0.47-0.16,1-0.47
		c0.52-0.07,0.83-0.11,0.91-0.11l1-0.13c0.13-0.01,0.3,0,0.51,0.03c0.21,0.04,0.34,0.08,0.38,0.14c0.18,0.04,0.41,0.13,0.68,0.26
		l0.51,0.47c0.2,0.28,0.33,0.5,0.4,0.64C39.55,8.38,39.52,8.5,39.4,8.56z"/>
	<path class="st1" d="M40.71,11.1h0.04c0.18-0.06,0.48-0.03,0.89,0.06c0.14,0.04,0.23,0.45,0.26,1.21c0.06,0.58,0.09,0.98,0.09,1.2
		c0,0.22,0.01,0.35,0.02,0.39v1.42l0.11,0.02c0-0.01,0.01-0.1,0.04-0.26c0.07-0.4,0.15-0.7,0.23-0.91c0.06-0.06,0.09-0.13,0.1-0.21
		c0.01-0.09,0.05-0.18,0.12-0.28c0.09-0.4,0.3-0.91,0.64-1.55c0.11-0.27,0.22-0.47,0.33-0.61c0.11-0.13,0.27-0.18,0.49-0.14
		c0.22,0.04,0.4,0.12,0.54,0.23c0.11,0.01,0.25,0.04,0.4,0.06l0.62,0.13c0.06,0.01,0.13,0.06,0.23,0.14
		c0.1,0.08,0.14,0.17,0.13,0.29c-0.01,0.11-0.03,0.45-0.04,1v0.34l-0.09,0.83c0,0.23,0.01,0.36,0.04,0.4l0.09,0.06l0.17-0.98
		c0-0.1,0.04-0.19,0.13-0.28l0.26-0.62c0-0.04,0.04-0.13,0.13-0.28c0.03-0.1,0.1-0.24,0.2-0.42c0.11-0.18,0.24-0.36,0.41-0.53
		c0-0.11,0.13-0.19,0.38-0.23c0.2-0.21,0.52-0.22,0.98-0.02c0.09,0,0.16,0.01,0.23,0.04c0,0.03,0.05,0.05,0.16,0.06
		c0.11,0.01,0.24,0.11,0.39,0.28v0.23c0,0.14,0.01,0.25,0.02,0.32c-0.01,0.1-0.01,0.23,0.02,0.38v0.26
		c0.01,0.11,0.05,0.47,0.11,1.06v0.23c0.04,0.09,0.06,0.17,0.05,0.27c-0.01,0.09-0.01,0.19-0.01,0.29c0.04,0.04,0.08,0.16,0.11,0.35
		c0.03,0.19,0.01,0.38-0.04,0.56l0.04,0.19v0.6c0.07,0.06,0.11,0.14,0.11,0.26l0.06,0.36c0,0.26,0.04,0.51,0.11,0.77v0.23l0.11,0.55
		v0.13l-0.02,0.21c0,0.16-0.09,0.27-0.26,0.34c-0.03,0.01-0.07,0.04-0.12,0.06c-0.05,0.03-0.13,0.04-0.24,0.04l-0.45-0.15
		l-0.21-0.15c-0.11,0.03-0.26-0.02-0.45-0.15c0-0.13-0.05-0.24-0.15-0.34c-0.17-0.06-0.23-0.17-0.19-0.34
		c0.01-0.01-0.02-0.09-0.11-0.23c0.03-0.03,0.01-0.18-0.06-0.47c0-0.13-0.01-0.25-0.03-0.37c-0.02-0.12-0.04-0.24-0.04-0.37
		c-0.01-0.13-0.03-0.24-0.07-0.34c0.01,0,0.02-0.05,0.02-0.15c0-0.1-0.01-0.19-0.04-0.28v-0.49L47.58,15l-0.32,0.98
		c-0.21,0.55-0.32,0.85-0.32,0.89l-0.68,2.13c-0.04,0.08-0.12,0.18-0.24,0.29s-0.22,0.16-0.31,0.16c-0.03-0.04-0.1-0.06-0.22-0.06
		s-0.27,0.04-0.44,0.11c-0.48,0.06-0.76-0.09-0.83-0.45l-0.04-0.49l0.02-0.49c-0.03-0.04-0.04-0.14-0.04-0.3l-0.02-0.3v-0.91
		l-0.04-1.08v-1.04c-0.41,1.12-0.67,1.85-0.77,2.19l-0.79,2.53c-0.16,0.41-0.44,0.63-0.85,0.66l-0.23,0.04
		c-0.31,0.07-0.52,0.02-0.62-0.15l-0.21-0.36c-0.06-0.31-0.11-0.49-0.17-0.53c-0.03-0.2-0.1-0.4-0.21-0.62l-0.11-0.51
		c0-0.04-0.01-0.11-0.04-0.19V17.1c-0.04-0.11-0.08-0.34-0.11-0.69c-0.03-0.35-0.04-0.63-0.02-0.84c-0.06-0.17-0.07-0.38-0.04-0.64
		v-0.38c-0.07-0.33-0.11-0.82-0.11-1.49v-0.3c0.07-0.43,0.11-0.71,0.11-0.86s0.03-0.26,0.11-0.34C40.1,11.48,40.33,11.33,40.71,11.1
		z"/>
	<path class="st1" d="M52.65,13.65l0.09-0.98c0.04-0.11,0.05-0.26,0.02-0.45l0.15-0.87c0-0.13-0.01-0.27-0.02-0.41
		c-0.01-0.15-0.01-0.25,0.02-0.31c0.06-0.11,0.21-0.21,0.45-0.3h-0.09c0.14-0.09,0.34-0.09,0.6-0.02c0.26,0.07,0.47,0.13,0.64,0.19
		c0.1,0.13,0.23,0.27,0.38,0.43l0.02,0.68c0,0.35,0.02,0.72,0.06,1.11c-0.01,0.16-0.01,0.26,0,0.3l0.36-0.38
		c0.01-0.03,0.17-0.18,0.48-0.47c0.3-0.28,0.5-0.46,0.58-0.53c0-0.07,0.09-0.13,0.26-0.17c0.37-0.08,0.68-0.09,0.94-0.01
		c0.26,0.08,0.4,0.12,0.43,0.12l0.79,0.34c0,0.06,0.07,0.11,0.21,0.15l0.19,0.11c0.07,0,0.16,0.05,0.28,0.15
		c0.17,0.03,0.23,0.15,0.19,0.36c0,0.06,0.02,0.11,0.06,0.17v0.51c0,0.23-0.07,0.63-0.2,1.2c-0.13,0.57-0.22,0.91-0.26,1.01
		c-0.04,0.1-0.08,0.23-0.13,0.38c-0.05,0.16-0.1,0.3-0.16,0.45c-0.07,0.24-0.21,0.57-0.43,0.99c-0.21,0.42-0.43,0.75-0.64,0.99
		c-0.5,0.69-1.05,1.25-1.66,1.66c-0.67,0.26-1.08,0.4-1.25,0.45c-0.04,0-0.04,0.26,0,0.77v1.53l0.06,0.94l0.02,0.96
		c0.03,0.47,0.01,0.73-0.04,0.79l-0.26,0.21c-0.18,0.07-0.35,0.08-0.49,0.02c-0.28-0.09-0.45-0.15-0.51-0.19
		c-0.06,0-0.15-0.06-0.28-0.17l-0.23-0.09c-0.2,0.03-0.32-0.02-0.36-0.15c-0.14-0.11-0.21-0.21-0.21-0.3l-0.32-0.47
		c-0.09-0.21-0.13-0.41-0.13-0.6c-0.09-0.31-0.11-0.55-0.09-0.72l-0.04-0.81v-1.13c0-0.38-0.01-0.63-0.04-0.74
		c-0.03-0.09-0.01-0.84,0.04-2.25c0.04-0.28,0.06-0.46,0.06-0.53l0.32-2.62l0.06-0.72v-0.17C52.63,13.86,52.65,13.73,52.65,13.65z
		 M57.2,13.99c0.07-0.55,0.09-0.85,0.06-0.89c-0.07,0.03-0.16,0.11-0.26,0.23l-0.7,0.79c-0.74,0.92-1.11,1.47-1.11,1.64
		c0,0.03-0.05,0.14-0.15,0.34l0.02,0.34l-0.04,0.91v0.23c0,0.61,0.02,1.05,0.06,1.32c0.01-0.04,0.13-0.13,0.36-0.28l0.36-0.49
		c0.37-0.45,0.6-0.78,0.7-0.98c0.31-0.95,0.47-1.49,0.47-1.62c0-0.2,0.06-0.48,0.17-0.85c0-0.13,0.01-0.28,0.04-0.45V13.99z"/>
	<path class="st1" d="M65.32,16.14l-0.79,0.06c-0.44,0-0.79-0.04-1.04-0.13l0.06,0.4c0.04,1.18,0.37,1.95,0.98,2.32
		c0.17,0.07,0.31,0.11,0.43,0.11c0.11,0,0.26-0.06,0.45-0.17c0.06-0.06,0.11-0.13,0.15-0.23c0.01-0.13,0.09-0.18,0.21-0.17
		c0.58-0.74,1.02-1.03,1.32-0.87c0.3,0.2,0.45,0.35,0.45,0.47c0,0.06-0.04,0.12-0.11,0.19v0.13c0,0.14-0.09,0.4-0.27,0.77
		c-0.18,0.37-0.37,0.68-0.56,0.94c-0.1,0.21-0.23,0.36-0.38,0.45c-0.45,0.28-0.94,0.4-1.45,0.34c-0.11-0.01-0.19-0.04-0.23-0.09
		c-0.11-0.03-0.2-0.04-0.26-0.02l-0.17-0.02c-0.13,0-0.23-0.03-0.32-0.09c-0.14-0.09-0.24-0.13-0.3-0.13
		c-0.37-0.14-0.59-0.25-0.67-0.32c-0.08-0.07-0.15-0.12-0.2-0.15c-0.06-0.03-0.19-0.18-0.4-0.45c-0.18-0.16-0.29-0.26-0.32-0.3
		c-0.09-0.13-0.16-0.22-0.22-0.28c-0.06-0.06-0.1-0.18-0.12-0.38c-0.06-0.07-0.08-0.16-0.08-0.28l-0.09-0.17
		c0-0.1-0.04-0.18-0.13-0.23c-0.08-0.09-0.13-0.19-0.13-0.32v-0.17c-0.06-0.03-0.07-0.11-0.04-0.26v-0.55l-0.02-0.19v-0.15
		c-0.01-0.06,0-0.18,0.04-0.36l-0.02-0.19c0.01-0.01,0.04-0.13,0.06-0.34c0.06-0.3,0.12-0.48,0.19-0.55v-0.19
		c0.01-0.04,0.02-0.1,0.02-0.17c0-0.07,0.02-0.15,0.05-0.23c0.04-0.09,0.15-0.4,0.33-0.96l0.34-0.74c0.1-0.21,0.26-0.45,0.47-0.7
		c0.01-0.07,0.07-0.2,0.17-0.38L63,11.13c0.09-0.13,0.21-0.22,0.38-0.28c0.2-0.1,0.35-0.15,0.45-0.15l0.6-0.09
		c0.07,0.01,0.12,0.02,0.15,0.02h0.28c0.31,0.03,0.57,0.09,0.77,0.19c0.43,0.13,0.74,0.29,0.94,0.49c0.44,0.5,0.66,0.97,0.66,1.42
		c0,0.45-0.07,0.84-0.21,1.17c-0.35,0.81-0.61,1.32-0.77,1.53C65.98,15.91,65.67,16.14,65.32,16.14z M65.38,13.08
		c0.06-0.21,0.05-0.48-0.02-0.81c-0.1-0.08-0.23-0.13-0.4-0.13c-0.21,0-0.4,0.2-0.57,0.6c-0.23,0.34-0.4,0.72-0.51,1.13h-0.02
		c-0.16,0.6-0.23,0.91-0.23,0.96c0.23,0.06,0.41,0.08,0.55,0.07c0.14-0.01,0.3-0.08,0.49-0.22C64.98,14.37,65.23,13.83,65.38,13.08z
		"/>
	<path class="st1" d="M69.01,13.61c0-0.13-0.01-0.28-0.04-0.45v-0.15c0.01-0.1,0.01-0.21-0.02-0.32c0-0.14,0.01-0.27,0.04-0.38
		c0-0.28,0.04-0.47,0.11-0.55c0-0.07,0.1-0.23,0.3-0.49c0.06-0.06,0.16-0.15,0.32-0.28c0.23-0.07,0.38-0.11,0.47-0.13
		c0.06-0.06,0.25-0.03,0.57,0.06c0.14,0.01,0.36,0.06,0.66,0.15c0.1,0.03,0.23,0.14,0.38,0.34c-0.03,0.06-0.07,0.27-0.14,0.63
		c-0.06,0.36-0.09,0.66-0.07,0.88c0.09-0.07,0.23-0.22,0.45-0.45c0.21-0.23,0.33-0.35,0.34-0.36c0.37-0.17,0.73-0.29,1.08-0.36
		c0.51-0.04,0.84-0.01,1,0.11c0.13,0.04,0.23,0.11,0.3,0.19c0.13,0.11,0.23,0.31,0.32,0.58c0.09,0.28,0.08,0.45-0.02,0.52
		c-0.09,0.07-0.37,0.13-0.85,0.17c-0.03,0-0.13,0.06-0.3,0.17l-1.11,0.87c-0.23,0.11-0.38,0.21-0.47,0.3l-0.4,0.74
		c-0.01,0.03-0.03,0.21-0.04,0.55s-0.01,0.58,0,0.73c0.01,0.15,0.01,0.63,0,1.44v0.91c0,0.5-0.01,0.78-0.02,0.86
		c-0.01,0.08-0.07,0.22-0.17,0.41c-0.04,0.07-0.18,0.11-0.4,0.11c-0.55,0.41-0.91,0.39-1.06-0.06l-0.28-0.17
		c-0.11-0.06-0.18-0.13-0.21-0.21c-0.11-0.16-0.17-0.25-0.17-0.28l-0.08-0.3l-0.13-0.26c-0.04-0.01-0.08-0.29-0.11-0.82
		c-0.03-0.53-0.04-0.86-0.04-0.98c0-0.12-0.01-0.25-0.04-0.39c0.1-0.1,0.15-0.27,0.14-0.51c-0.01-0.24-0.02-0.43-0.05-0.56
		c-0.03-0.13-0.03-0.22,0-0.26c0.03-0.04,0.02-0.23-0.02-0.58c-0.04-0.06-0.05-0.16-0.02-0.32L69.01,13.61z"/>
	<path class="st1" d="M78.5,19.1c0.01-0.01-0.01-0.22-0.09-0.62c0-0.09-0.01-0.38-0.04-0.89V17.1c0.04-0.2,0.04-0.35,0-0.45
		l0.02-0.28c0-0.2,0.01-0.35,0.03-0.46c0.02-0.11,0.01-0.27-0.03-0.5c0-0.38,0-0.66,0.01-0.82c0.01-0.16-0.01-0.34-0.05-0.54
		c0.01-0.06,0.02-0.26,0.02-0.62c0.03-0.09,0.05-0.19,0.06-0.32l-1.34,0.04c-0.43,0.03-0.7-0.08-0.83-0.32
		c-0.11-0.16-0.07-0.38,0.13-0.66c0.06-0.09,0.37-0.16,0.94-0.23l0.23-0.04l0.89-0.26c0.03-0.11,0.04-0.25,0.02-0.4l0.06-0.7
		c0-0.23,0.02-0.49,0.06-0.79c0-0.17,0.02-0.37,0.06-0.6c0-0.17,0.01-0.36,0.04-0.57c0-0.14,0.03-0.6,0.09-1.38
		c0.06-0.11,0.11-0.26,0.15-0.45c-0.06-0.06-0.03-0.21,0.09-0.45c0-0.21,0.21-0.51,0.64-0.89l0.43-0.34
		c0.24-0.17,0.57-0.34,0.98-0.51c0.11-0.09,0.39-0.08,0.83,0.02c0.04,0,0.17-0.02,0.38-0.06l0.74,0.09c0.65,0,1.1,0.21,1.34,0.64
		c0.07,0.14,0.09,0.31,0.04,0.49c-0.03,0.45-0.29,0.66-0.79,0.62c-0.5,0-0.81,0.01-0.94,0.02c-0.48,0.13-0.79,0.3-0.94,0.51
		c-0.33,0.48-0.53,0.88-0.62,1.18c-0.08,0.3-0.15,0.66-0.19,1.07c-0.06,0.74-0.1,1.17-0.12,1.29c-0.02,0.12-0.04,0.26-0.06,0.41
		c-0.02,0.16,0.01,0.26,0.1,0.32c0.06,0,0.16-0.02,0.3-0.06c0.1-0.1,0.32-0.13,0.66-0.08c0.04-0.01,0.07-0.02,0.07-0.01
		c0.01,0.01,0.02,0.01,0.05,0.01l0.34-0.04l0.77,0.04c0.34,0.04,0.56,0.15,0.67,0.31c0.11,0.16,0.12,0.32,0.03,0.48
		c-0.08,0.16-0.23,0.27-0.43,0.34c-1.47,0.33-2.37,0.53-2.7,0.62c-0.01,0.17-0.03,0.33-0.04,0.47c-0.01,0.14-0.02,0.28-0.02,0.43
		v1.64l0.06,0.74l-0.02,0.23v0.4l-0.02,0.49c0.07,0.82,0.16,1.55,0.26,2.19c0.1,0.35,0.15,0.6,0.15,0.72c0,0.26-0.18,0.47-0.53,0.64
		c-0.72,0.31-1.22,0.28-1.49-0.11c-0.01-0.03-0.03-0.06-0.05-0.1c-0.02-0.04-0.03-0.06-0.03-0.07l-0.09-0.23
		c0-0.01-0.04-0.23-0.13-0.64l-0.11-0.23L78.5,19.1z"/>
	<path class="st1" d="M86.56,20.52l-0.21-0.04l-0.3-0.3c-0.08,0-0.15-0.04-0.19-0.11c-0.16-0.18-0.44-0.55-0.85-1.11l-0.32-1.17
		c0-0.23-0.04-0.43-0.13-0.6c-0.14-0.64-0.23-1-0.26-1.1c-0.03-0.09-0.05-0.35-0.05-0.78c-0.01-0.43,0.01-0.74,0.05-0.94
		c0.04-0.27,0.3-0.94,0.79-2c0.13-0.13,0.21-0.3,0.23-0.51l0.34-0.49c0.31-0.37,0.64-0.64,1-0.81c0-0.03,0.24-0.1,0.72-0.21
		c0.1-0.01,0.33,0.02,0.68,0.11c0.85,0.2,1.38,0.45,1.59,0.74l0.06,0.11c0.27,0.38,0.43,0.97,0.47,1.76
		c-0.04,0.35-0.08,0.65-0.11,0.89c-0.03,0.24-0.18,0.68-0.47,1.32c-0.21,0.4-0.42,0.72-0.62,0.96c-0.31,0.23-0.52,0.34-0.64,0.34
		c-0.06,0.03-0.18,0.04-0.36,0.04h-0.49c-0.04-0.01-0.13-0.02-0.28-0.02c-0.14,0-0.35-0.04-0.62-0.11c0,0.31,0.09,0.76,0.27,1.33
		c0.18,0.57,0.32,0.93,0.44,1.05c0.3,0.23,0.53,0.38,0.7,0.45c0.17,0.07,0.4,0.08,0.68,0.03c0.28-0.05,0.49-0.14,0.62-0.29
		l0.55-0.68c0.35-0.48,0.72-0.52,1.08-0.13c0.17,0.18,0.24,0.37,0.2,0.54s-0.18,0.53-0.44,1.05c-0.21,0.34-0.44,0.62-0.68,0.85
		c-0.44,0.23-0.7,0.34-0.79,0.34c-0.13,0.01-0.33-0.01-0.6-0.06c-0.14,0.07-0.38,0.06-0.72-0.02c0-0.03-0.04-0.05-0.12-0.05
		c-0.08-0.01-0.18-0.03-0.31-0.07l0.04-0.02c-0.03,0-0.11,0-0.26,0l-0.6-0.32H86.56z M88.22,12.08c-0.03-0.07-0.12-0.1-0.29-0.09
		c-0.16,0.01-0.29,0.1-0.37,0.26c-0.58,0.92-0.89,1.91-0.94,2.96c0.48,0.11,0.89-0.1,1.23-0.64C88.29,13.18,88.42,12.35,88.22,12.08
		z"/>
	<path class="st1" d="M96.49,20.49l-0.32,0.03c-0.17,0.04-0.39,0.02-0.68-0.07c-0.2,0.03-0.36,0.02-0.5-0.03
		c-0.14-0.01-0.26-0.03-0.35-0.08c-0.09-0.05-0.19-0.09-0.32-0.12c-0.13-0.03-0.21-0.07-0.24-0.11l-0.4-0.37
		c-0.13-0.19-0.25-0.35-0.36-0.47c-0.09-0.12-0.13-0.2-0.12-0.23c-0.05-0.04-0.15-0.15-0.29-0.34c-0.29-0.91-0.47-1.5-0.54-1.77
		c-0.15-0.66-0.18-1.21-0.1-1.67c0.08-0.45,0.12-0.75,0.09-0.9c-0.06-0.37-0.03-0.64,0.08-0.81l0.2-0.78l0.21-0.33
		c0-0.01,0.13-0.19,0.39-0.52c0.03,0,0.09-0.07,0.19-0.2c0.1-0.13,0.31-0.28,0.62-0.44c0.31-0.16,0.49-0.25,0.55-0.26l0.42-0.07
		c0.01,0,0.16,0,0.43,0c0.27,0,0.47,0,0.6-0.01c0.22,0,0.58,0.05,1.1,0.16c0.33,0.24,0.63,0.58,0.92,1.03
		c0.25,0.76,0.35,1.29,0.3,1.59l-0.06,0.44c0,0.09-0.07,0.21-0.22,0.35c-0.3,0.34-0.66,0.52-1.07,0.56c-0.39-0.01-0.6-0.1-0.65-0.26
		c-0.04-0.07-0.02-0.26,0.06-0.57c0.08-0.31,0.08-0.72-0.01-1.24c-0.14-0.25-0.29-0.38-0.45-0.38c-0.3,0.03-0.55,0.29-0.76,0.78
		c-0.06,0.13-0.11,0.24-0.13,0.33c-0.02,0.09-0.04,0.17-0.07,0.24C95,14.06,94.99,14.1,95,14.09c-0.07,0.12-0.12,0.25-0.15,0.39
		c0,0.11,0.01,0.2,0.02,0.27c0.01,0.07,0.01,0.18-0.01,0.32c-0.08,0.86-0.08,1.52,0,1.98c0.07,0.46,0.21,0.85,0.41,1.18
		c0.06,0.19,0.12,0.31,0.17,0.38c0.05,0.07,0.14,0.14,0.27,0.23c0.5,0.33,1.03,0.24,1.6-0.26c0.09-0.09,0.17-0.22,0.26-0.39
		c0.09-0.17,0.17-0.29,0.25-0.35c0.13-0.02,0.27,0.02,0.43,0.11c0.22,0.03,0.34,0.21,0.35,0.56c-0.05,0.23-0.09,0.4-0.13,0.5
		c-0.19,0.8-0.78,1.29-1.79,1.45L96.49,20.49z"/>
	<path class="st1" d="M101.76,12.38l0.02-0.19c-0.3-0.03-0.51-0.05-0.63-0.07c-0.12-0.02-0.32-0.05-0.58-0.07
		c-0.27-0.03-0.48-0.07-0.64-0.13c-0.3-0.1-0.47-0.36-0.51-0.78c-0.04-0.42,0.09-0.68,0.4-0.78c0.28-0.07,0.48-0.11,0.6-0.11
		c0.11,0,0.33-0.01,0.64-0.04c0.16-0.09,0.37-0.13,0.64-0.15l0.32-0.09c0,0.01,0.06,0,0.17-0.04l0.11-0.45
		c0-0.23,0.06-0.45,0.19-0.68c0-0.1,0.09-0.38,0.28-0.83c0-0.06,0.13-0.47,0.38-1.23c0.06-0.07,0.27-0.23,0.64-0.49
		c0.23-0.11,0.55-0.04,0.96,0.23c0.23,0.1,0.38,0.23,0.47,0.4c-0.09,0.09-0.13,0.28-0.13,0.6c-0.01,0.1-0.11,0.62-0.3,1.57v0.6
		c0.11,0.01,0.3,0.05,0.56,0.11c0.26,0.06,0.58,0.12,0.95,0.19c0.71,0.14,1.15,0.42,1.34,0.85c0.07,0.31,0.06,0.53-0.04,0.66
		c-0.1,0.13-0.34,0.22-0.72,0.28c-0.31,0.01-0.72,0.02-1.22,0.02c-0.5,0-0.88,0.04-1.12,0.11c-0.03,0.26-0.04,0.45-0.04,0.6
		l-0.02,0.32c0,0.1-0.06,0.62-0.19,1.57c-0.09,0.13-0.16,0.79-0.21,1.98v1.55c0,0.26,0.02,0.5,0.06,0.72
		c0.01,0.31,0.05,0.53,0.11,0.66c0,0.13,0.04,0.4,0.11,0.81c-0.17,0.41-0.45,0.62-0.84,0.62c-0.39,0-0.73-0.14-1.03-0.43l-0.23-0.34
		c-0.04-0.11-0.07-0.19-0.1-0.23c-0.02-0.04-0.04-0.09-0.05-0.15c-0.1-0.28-0.18-0.46-0.23-0.53c-0.09-0.11-0.13-0.2-0.13-0.26
		s0-0.13,0-0.21c-0.03-0.24-0.06-0.45-0.11-0.62c-0.07-0.07-0.11-0.31-0.11-0.72c0.03-0.75,0.03-1.18,0-1.3
		c0.04-0.04,0.05-0.31,0.02-0.81l0.06-0.47c0-0.06,0.03-0.27,0.08-0.64c-0.03-0.06-0.04-0.21-0.02-0.46
		c0.01-0.25,0.04-0.42,0.06-0.52C101.75,12.85,101.76,12.64,101.76,12.38z"/>
	<path class="st0" d="M119.65,14.38v4.42c0,0.26-0.08,0.46-0.23,0.6c-0.15,0.14-0.37,0.21-0.64,0.21c-0.26,0-0.47-0.07-0.62-0.22
		c-0.15-0.15-0.23-0.35-0.23-0.6v-4.34c0-0.7-0.14-1.22-0.42-1.55c-0.28-0.33-0.71-0.49-1.3-0.49c-0.69,0-1.25,0.22-1.67,0.65
		c-0.42,0.43-0.63,1.01-0.63,1.74v4c0,0.25-0.08,0.45-0.23,0.6c-0.15,0.15-0.36,0.22-0.62,0.22c-0.26,0-0.47-0.07-0.63-0.22
		c-0.16-0.15-0.24-0.35-0.24-0.6v-6.92c0-0.24,0.08-0.43,0.25-0.59c0.16-0.15,0.37-0.23,0.62-0.23c0.25,0,0.45,0.07,0.6,0.22
		c0.15,0.15,0.22,0.34,0.22,0.58v0.7c0.27-0.5,0.65-0.88,1.14-1.14c0.49-0.26,1.04-0.39,1.65-0.39
		C118.66,11.03,119.65,12.14,119.65,14.38z"/>
	<path class="st0" d="M123.34,19.12c-0.62-0.35-1.1-0.85-1.43-1.51c-0.33-0.65-0.5-1.41-0.5-2.27c0-0.87,0.17-1.64,0.5-2.29
		s0.81-1.15,1.43-1.51c0.62-0.35,1.34-0.53,2.15-0.53c0.82,0,1.53,0.18,2.15,0.53c0.62,0.35,1.09,0.85,1.43,1.51
		c0.33,0.65,0.5,1.41,0.5,2.29c0,0.86-0.17,1.62-0.5,2.27c-0.34,0.65-0.81,1.15-1.43,1.51c-0.62,0.35-1.34,0.53-2.15,0.53
		C124.68,19.65,123.96,19.47,123.34,19.12z M127.24,17.54c0.4-0.5,0.6-1.23,0.6-2.19c0-0.95-0.2-1.68-0.61-2.19
		s-0.99-0.76-1.74-0.76c-0.75,0-1.33,0.25-1.73,0.76s-0.61,1.23-0.61,2.19c0,0.96,0.2,1.7,0.6,2.19c0.4,0.5,0.98,0.75,1.74,0.75
		C126.25,18.29,126.83,18.04,127.24,17.54z"/>
	<path class="st0" d="M143.17,11.08c0.22,0,0.41,0.07,0.58,0.22c0.17,0.15,0.26,0.33,0.26,0.54c0,0.11-0.02,0.22-0.07,0.31
		l-2.82,6.89c-0.07,0.18-0.18,0.32-0.34,0.42c-0.16,0.1-0.33,0.14-0.53,0.14c-0.18,0-0.35-0.05-0.51-0.14
		c-0.16-0.1-0.27-0.24-0.34-0.42l-2.21-5.46l-2.16,5.46c-0.07,0.18-0.18,0.32-0.33,0.42c-0.15,0.1-0.33,0.14-0.52,0.14
		c-0.18,0-0.36-0.05-0.52-0.14c-0.16-0.1-0.29-0.24-0.37-0.42l-2.81-6.89c-0.05-0.09-0.07-0.19-0.07-0.29
		c0-0.23,0.09-0.41,0.28-0.56c0.19-0.15,0.39-0.22,0.62-0.22c0.34,0,0.57,0.16,0.7,0.49l2.19,5.8l2.25-5.75
		c0.07-0.18,0.18-0.32,0.32-0.41c0.15-0.09,0.31-0.14,0.48-0.14c0.16,0,0.31,0.05,0.46,0.14c0.15,0.09,0.25,0.23,0.32,0.41
		l2.25,5.72l2.19-5.75C142.59,11.25,142.83,11.08,143.17,11.08z"/>
</g>
</svg>
