<?xml version="1.0" encoding="utf-8"?>
<!-- Generator: Adobe Illustrator 23.0.6, SVG Export Plug-In . SVG Version: 6.00 Build 0)  -->
<svg version="1.1" id="Layer_1" xmlns="http://www.w3.org/2000/svg" xmlns:xlink="http://www.w3.org/1999/xlink" x="0px" y="0px"
	 viewBox="0 0 144 28.8" style="enable-background:new 0 0 144 28.8;" xml:space="preserve">
<style type="text/css">
	.st0{fill:#84B274;}
	.st1{fill:#FF8066;}
</style>
<g>
	<path class="st0" d="M2.4,8.7v2.2h1.9v0.8H2.4v5.6c0,0.6,0.1,1,0.3,1.2c0.2,0.2,0.5,0.4,0.8,0.4c0.2,0,0.3,0,0.4,0
		c0.1,0,0.3,0,0.5-0.1l0.1,0.7c-0.2,0.1-0.4,0.1-0.6,0.2c-0.2,0-0.5,0.1-0.7,0.1c-0.6,0-1.1-0.2-1.4-0.6s-0.5-1-0.5-1.8v-5.6H0v-0.8
		h1.5V8.7H2.4z"/>
	<path class="st0" d="M5.8,7.8V7.1h2.2v5.3c0.3-0.5,0.7-0.9,1.1-1.2c0.5-0.3,1-0.4,1.7-0.4c0.9,0,1.6,0.3,2.1,0.8s0.7,1.4,0.7,2.6
		v4.5l1.3,0.1v0.7h-3.5v-0.7l1.3-0.1v-4.5c0-0.9-0.2-1.6-0.6-2c-0.4-0.4-0.9-0.6-1.5-0.6c-0.7,0-1.2,0.2-1.6,0.5
		c-0.4,0.3-0.8,0.8-1,1.4v5.3l1.3,0.1v0.7H5.8v-0.7l1.3-0.1V8L5.8,7.8z"/>
	<path class="st0" d="M16.3,18.8l1.3-0.1v-7l-1.3-0.1v-0.7h2.2v7.8l1.3,0.1v0.7h-3.5V18.8z M18.6,8.5h-0.9V7.1h0.9V8.5z"/>
	<path class="st0" d="M27.7,13.6H27l-0.1-1.2c-0.2-0.2-0.5-0.4-0.9-0.6s-0.8-0.2-1.3-0.2c-0.7,0-1.2,0.2-1.6,0.4
		c-0.3,0.3-0.5,0.7-0.5,1.1c0,0.4,0.1,0.7,0.4,1c0.3,0.3,0.9,0.5,1.8,0.7c1,0.2,1.8,0.5,2.3,0.9c0.5,0.4,0.8,0.9,0.8,1.6
		c0,0.7-0.3,1.3-0.9,1.7c-0.6,0.4-1.3,0.7-2.3,0.7c-0.6,0-1.2-0.1-1.7-0.3c-0.5-0.2-1-0.4-1.4-0.8V17h0.8l0.1,1.2
		c0.3,0.3,0.6,0.4,1,0.6c0.4,0.1,0.8,0.2,1.2,0.2c0.7,0,1.2-0.2,1.6-0.5s0.6-0.7,0.6-1.1c0-0.4-0.2-0.8-0.5-1.1
		c-0.3-0.3-0.9-0.5-1.8-0.7c-1-0.2-1.8-0.5-2.3-0.9c-0.5-0.4-0.7-0.9-0.7-1.5c0-0.7,0.3-1.2,0.8-1.7c0.6-0.5,1.3-0.7,2.2-0.7
		c0.6,0,1.2,0.1,1.7,0.3c0.5,0.2,0.9,0.5,1.3,0.8L27.7,13.6z"/>
	<path class="st1" d="M32.4,20.6l-0.2,0c-0.3,0-0.6-0.1-0.8-0.2c-0.2-0.1-0.3-0.3-0.3-0.5c0-0.4,0.7-0.6,2-0.6l1.2,0l0.2-0.5
		c0.1-0.4,0.3-0.9,0.5-1.7c0.1-0.3,0.2-0.8,0.5-1.5c0.5-1.5,0.7-2.3,0.8-2.4c0.1-0.2,0.2-0.6,0.4-1.1c0.2-0.6,0.3-1,0.4-1.4
		c0.7-2.3,1-3.4,0.9-3.5c-0.2,0-0.6,0-1.3,0.1c-0.7,0.1-1.1,0.1-1.2,0.2c0,0.1-0.1,0.1-0.2,0.1c-0.1,0-0.2,0-0.3-0.1
		c-0.1-0.1-0.2-0.2-0.2-0.2c0-0.1,0-0.1,0-0.3c0-0.1,0-0.2,0.1-0.3c0.2-0.1,0.6-0.3,1.1-0.5c0.6-0.2,1.2-0.3,1.7-0.4
		c0.3,0,0.5-0.1,0.8-0.2c0.3-0.1,0.5-0.2,0.6-0.3c0.3-0.1,0.6-0.2,0.8-0.1c0.1,0.1,0.4,0.1,0.8,0.1c0.4,0,0.6,0,0.8,0
		c0.6-0.1,1-0.1,1.4-0.1c0.3,0,0.5,0,0.6,0.1s0.2,0.2,0.3,0.3c0.1,0.3,0.1,0.4,0.1,0.5c0,0.3-0.2,0.4-0.5,0.4
		c-0.3,0.1-0.9,0.1-1.9,0.1c-1.1,0.1-1.7,0.2-1.8,0.3c-0.1,0.1-0.1,0.1-0.2,0.2c0,0.1-0.1,0.1-0.1,0.2c0,0.1,0,0.3-0.1,0.6
		c-0.1,0.3-0.2,0.7-0.3,1l-0.4,1.2c-0.4,1.4-0.7,2.2-0.8,2.5c-0.1,0.3-0.2,0.5-0.2,0.8c-0.3,0.9-0.5,1.7-0.7,2.2
		c-0.2,0.5-0.3,1-0.4,1.3c-0.3,0.9-0.5,1.6-0.7,2.2l1.3-0.1c0.9-0.1,1.5-0.1,1.8-0.1c0.2,0,0.4,0,0.5,0.1c0.1,0,0.2,0.1,0.2,0.3
		c0.2,0.2,0.3,0.4,0.3,0.6c0,0.2-0.1,0.3-0.4,0.4c-0.3,0.1-0.8,0.1-1.4,0.1c-0.7,0-1.3,0.1-1.8,0.1c-0.5,0-0.8,0.1-1,0.1
		c-0.2,0-0.3,0.1-0.3,0.2c0,0.1-0.1,0.2-0.2,0.2c-0.2,0-0.3,0-0.4-0.1C34.3,20.6,33.6,20.5,32.4,20.6z"/>
	<path class="st1" d="M51.4,18.6c-0.2-0.3-0.3-0.8-0.3-1.5l0-1.1c0-0.2,0-0.3,0-0.4c0-0.1-0.1-0.1-0.1-0.1c-0.2,0-0.6,0.3-1.3,0.8
		c-0.7,0.5-1.3,1.2-2,1.9c-0.1,0.1-0.2,0.2-0.3,0.3c-0.1,0.1-0.3,0.3-0.4,0.3C46.9,19,46.8,19,46.7,19c-0.1,0-0.3-0.1-0.4-0.2
		L46,18.6c-0.1-0.1-0.2-0.2-0.2-0.3l0-0.2l0.5-1.6c0.3-0.8,0.5-1.3,0.6-1.5c0.1-0.2,0.1-0.3,0-0.3c-0.1,0-0.3,0.1-0.6,0.2
		c-0.3,0.1-0.4,0.3-0.5,0.4c0,0-0.1,0.1-0.3,0.2c-0.2,0.2-0.3,0.3-0.4,0.4c-0.1,0.2-0.5,0.6-1,1.1l-0.6,0.5c-0.2,0.2-0.6,0.6-1,1.2
		c-0.2,0.3-0.3,0.4-0.4,0.4c-0.5,0-0.8-0.2-0.9-0.7c-0.1-0.1-0.1-0.3-0.1-0.4c0-0.3,0.1-0.8,0.3-1.6c0.1-0.5,0.2-0.9,0.2-1l0.1-0.5
		c0-0.2,0.1-0.4,0.2-0.7c0.1-0.3,0.3-0.7,0.6-1.3c0.2-0.4,0.2-0.8,0.2-1c0-0.2,0.1-0.4,0.2-0.5c0.1-0.1,0.3-0.2,0.5-0.2
		c0.2,0,0.4,0.1,0.6,0.3c0.2,0.2,0.2,0.4,0.2,0.7c0,0.3-0.1,0.5-0.2,0.8l-0.3,0.6c-0.1,0.3-0.3,0.7-0.5,1.2
		c-0.2,0.6-0.3,0.9-0.3,0.9c0,0,0.1,0,0.2,0c0.1-0.1,0.2-0.2,0.3-0.3c0.1-0.1,0.3-0.3,0.5-0.4c0.5-0.4,1-0.9,1.7-1.3
		c0.7-0.4,1.1-0.7,1.5-0.8c0.2,0,0.4,0,0.5,0.1c0.1,0.1,0.2,0.1,0.3,0.3c0.1,0.1,0.2,0.2,0.3,0.3c0.1,0.1,0.2,0.3,0.2,0.6
		c0,0.1,0,0.2,0,0.3c-0.1,0.2-0.1,0.5-0.2,0.8c-0.1,0.3-0.2,0.5-0.2,0.7c0.1-0.1,0.3-0.3,0.6-0.5c0.3-0.2,0.5-0.5,0.8-0.7
		c0.8-0.6,1.4-0.9,1.9-0.9c0.3,0,0.6,0.2,0.8,0.5c0.1,0.1,0.2,0.3,0.3,0.4c0,0.1,0,0.4,0,0.6c0,0.3,0,0.4,0,0.6c0,0.1,0,0.3,0,0.6
		c0,0.1,0,0.4,0.1,0.7c0,0.4,0.1,0.6,0.1,0.6c0.1,0.1,0.3,0.2,0.8,0.3c0.3,0,0.4,0.2,0.4,0.4c0,0.1-0.1,0.3-0.3,0.4
		c-0.2,0.1-0.5,0.2-0.8,0.2c-0.3,0-0.5,0-0.8-0.1C51.8,19.1,51.6,18.9,51.4,18.6z"/>
	<path class="st1" d="M53.8,25.5c-0.1,0-0.2-0.1-0.3-0.2c-0.1-0.1-0.1-0.2-0.1-0.4c0-0.1,0-0.4,0.1-0.8c0.2-0.7,0.3-1.1,0.3-1.4
		c0-0.1,0-0.2,0-0.3c0-0.1,0.1-0.3,0.1-0.4c0.1-0.1,0.1-0.3,0.2-0.5c0.1-0.2,0.1-0.4,0.1-0.6c0-0.1,0-0.2,0.1-0.3
		c0.1-0.1,0.1-0.2,0.2-0.2c0-0.1,0-0.2,0.1-0.4c0-0.2,0.1-0.3,0.1-0.4c0.1-0.4,0.4-1.4,0.9-3c0.5-1.6,1-2.9,1.4-3.8
		c0.2-0.4,0.3-0.8,0.4-1.1c0.1-0.3,0.1-0.6,0.1-0.8c0-0.1,0-0.1,0.1-0.2c0-0.1,0.1-0.1,0.2-0.2c0.1-0.1,0.2-0.2,0.3-0.2
		c0.1,0,0.2,0,0.3,0.1c0.1,0.1,0.2,0.1,0.3,0.2c0.1,0.1,0.2,0.3,0.2,0.4c0.1,0.1,0.1,0.3,0.1,0.4c0,0,0,0.2,0,0.4
		c0,0.3-0.1,0.6-0.2,0.8c-0.1,0.2-0.2,0.3-0.2,0.3c0.7-0.3,1.3-0.5,1.9-0.5c0.7,0,1.2,0.2,1.5,0.6c0.4,0.4,0.6,1,0.6,1.6
		c0,0.3-0.1,0.6-0.2,1c-0.2,0.4-0.3,0.7-0.5,0.8c-0.1,0-0.2,0.2-0.4,0.5c-0.2,0.3-0.5,0.5-1,0.8c-0.5,0.3-0.8,0.4-1,0.3
		c0,0,0,0-0.1,0c0,0,0,0.1,0,0.1s-0.3,0.2-0.8,0.4c-0.5,0.2-1,0.3-1.3,0.3c-0.2,0-0.3,0-0.4,0c-0.1,0-0.2-0.1-0.3-0.2
		c-0.1,0.1-0.2,0.2-0.2,0.3c0,0.2-0.1,0.5-0.2,0.9c-0.2,0.5-0.3,0.7-0.4,0.7c0,0,0,0-0.1,0.1c0,0,0,0.1,0.1,0.2c0,0,0,0.2,0,0.3
		c0,0.2-0.1,0.3-0.1,0.4c0,0.1,0,0.3-0.1,0.6c0,0.2-0.1,0.4-0.2,0.6c0,0.2,0,0.4-0.1,0.6c-0.1,0.2-0.1,0.3-0.2,0.3
		c-0.1,0-0.1,0.3-0.1,0.7c0,0.4-0.1,0.7-0.2,0.9c-0.1,0.2-0.3,0.3-0.5,0.3L53.8,25.5z M58.3,17.2c0.7-0.2,1.2-0.5,1.5-0.7
		c0.3-0.3,0.6-0.6,0.8-0.9c0.2-0.3,0.3-0.6,0.3-1c0-0.3-0.1-0.5-0.2-0.7c-0.1-0.2-0.3-0.3-0.6-0.3c-0.3,0-0.7,0.1-1.1,0.3
		c-0.4,0.2-0.8,0.5-1.2,0.9c-0.3,0.3-0.5,0.7-0.8,1.2c-0.2,0.5-0.3,0.9-0.3,1.2c0,0.2,0,0.3,0.1,0.3C57.1,17.6,57.6,17.5,58.3,17.2z
		"/>
	<path class="st1" d="M66.5,19.9c-0.4,0-0.8-0.1-1.1-0.3c-0.4-0.2-0.6-0.4-0.9-0.8c-0.2-0.3-0.4-0.5-0.4-0.8
		c-0.1-0.3-0.1-0.7-0.1-1.2c0-0.2,0-0.5,0-0.9c0-0.6,0.2-1.2,0.6-1.8c0.3-0.6,0.8-1.2,1.3-1.7c0.5-0.5,1-0.8,1.5-1
		c0.3-0.2,0.5-0.2,0.7-0.2c0.1,0,0.2,0,0.3,0c0.1,0,0.2,0,0.4,0c0.3,0,0.6,0.1,0.8,0.2c0.2,0.1,0.3,0.2,0.5,0.4
		c0.4,0.4,0.6,0.8,0.6,1.4c-0.1,0.4-0.3,0.8-0.7,1.3c-0.4,0.5-0.9,0.9-1.5,1.2c-0.3,0.1-0.6,0.1-1,0.1c-0.5,0-0.9-0.1-1.2-0.3
		c-0.1,0-0.3-0.1-0.3-0.1c-0.1,0-0.2,0.1-0.3,0.3c-0.1,0.2-0.1,0.5-0.2,1c0,0.1,0,0.3,0,0.5c0,0.8,0.3,1.2,0.8,1.3
		c0.4,0.1,0.6,0.1,0.8,0.1c0.2,0,0.4-0.1,0.6-0.2l0.4-0.3c0.1,0,0.2-0.1,0.3-0.2c0.1-0.1,0.1-0.1,0.2-0.2c0,0,0.1-0.1,0.1-0.2
		c0.1-0.1,0.1-0.1,0.2-0.1c0.1,0,0.1,0,0.2,0c0.1,0,0.1,0,0.2,0.1c0.1,0.1,0.1,0.1,0.2,0.2c0.1,0,0.2,0.1,0.1,0.3
		c-0.1,0.2-0.2,0.4-0.5,0.7c-0.3,0.3-0.6,0.5-0.9,0.7C67.5,19.7,67.1,19.9,66.5,19.9z M68.7,13.8c0.3-0.3,0.4-0.5,0.4-0.7
		c0-0.2-0.1-0.3-0.2-0.5c-0.1-0.1-0.3-0.2-0.6-0.2c-0.2,0-0.3,0-0.4,0c-0.2,0.1-0.5,0.2-0.8,0.5c-0.3,0.3-0.6,0.6-0.8,0.8
		c-0.2,0.3-0.3,0.4-0.3,0.5c0.1,0.1,0.4,0.2,0.9,0.2c0.4,0,0.7,0,0.9-0.1C68.2,14.3,68.5,14.1,68.7,13.8z"/>
	<path class="st1" d="M71.2,19.1c0-0.1-0.1-0.2-0.1-0.4c0-0.1,0-0.3,0-0.4c0-0.5,0.2-1.2,0.4-1.9l0.1-0.5c0-0.4,0.3-1.2,0.8-2.5
		c0.5-1.3,0.9-2.1,1.2-2.6c0.1-0.1,0.3-0.1,0.4-0.1c0.2,0,0.4,0.1,0.5,0.2c0.1,0.1,0.1,0.2,0.1,0.4c0,0.2-0.1,0.4-0.2,0.7
		c-0.1,0.3-0.3,0.8-0.6,1.4c-0.1,0.1-0.2,0.4-0.3,0.7c-0.1,0.3-0.2,0.5-0.2,0.6c0,0,0,0,0,0c0,0,0.1,0,0.1,0c0,0,0.1,0,0.1-0.1
		c0.2-0.3,0.6-0.7,1.3-1.2c0.7-0.5,1.1-0.8,1.4-1c0.1-0.1,0.3-0.1,0.4-0.2c0.2-0.1,0.3-0.1,0.4-0.1c0.3-0.1,0.5-0.2,0.9-0.2
		c0.2,0,0.4,0,0.6,0.1c0.2,0.1,0.3,0.2,0.3,0.3c0,0.1,0.1,0.2,0.1,0.3c0.1,0.1,0.1,0.1,0.2,0.1c0,0,0.1,0,0.1,0.1c0,0,0,0.1,0,0.1
		c0,0.1-0.1,0.2-0.2,0.2c-0.1,0-0.4,0-0.7,0.1c-0.2,0-0.4,0.1-0.5,0.1c-0.2,0.1-0.4,0.1-0.6,0.2c-0.9,0.5-1.5,0.9-2,1.2
		c-0.4,0.3-0.9,0.7-1.3,1.2c-0.2,0.2-0.4,0.5-0.7,1c-0.1,0.1-0.2,0.4-0.3,0.9c-0.1,0.5-0.2,0.7-0.2,0.9c0,0,0,0.1-0.1,0.3
		c0,0.1-0.1,0.3-0.2,0.4c-0.2,0.3-0.3,0.4-0.5,0.4c-0.1,0-0.3-0.1-0.6-0.4C71.3,19.3,71.2,19.2,71.2,19.1z"/>
	<path class="st1" d="M79.7,22.7c-0.1-0.1-0.3-0.3-0.5-0.5C79.1,22,79,21.9,79,21.9c0-0.1,0-0.2,0-0.3l0-0.6
		c0.1-0.2,0.1-0.5,0.1-0.8c0-0.1,0.1-0.5,0.2-1.2c0.1-0.7,0.2-1.1,0.3-1.4l0.1-0.3c0.1-0.5,0.2-1,0.3-1.4c0.1-0.4,0.2-0.8,0.3-1.2
		c0.1-0.4,0.1-0.6,0.1-0.8c0-0.3,0.1-0.5,0.3-0.6c0-0.1,0.1-0.4,0.4-0.8c0.4-1.1,0.7-1.8,0.8-2.3c0.2-0.5,0.4-0.9,0.6-1.2
		c0.3-0.8,0.5-1.3,0.7-1.5c0.1-0.3,0.4-0.7,0.9-1.2c0.5-0.5,0.9-0.9,1.3-1.2c0.3-0.2,0.6-0.3,0.8-0.4c0.2-0.1,0.5-0.1,0.8-0.1
		c0.3,0,0.5,0,0.6,0.1C87.6,4.7,87.7,4.8,88,5c0.2,0.2,0.3,0.4,0.4,0.5c0,0.1,0.1,0.2,0.1,0.4c-0.1,0.3-0.2,0.8-0.5,1.3
		S87.5,8,87.3,8c0,0-0.1,0-0.2,0c-0.2,0-0.4-0.2-0.4-0.6c0-0.1,0-0.2-0.1-0.3c0-0.1-0.1-0.2-0.1-0.2c0-0.2,0.1-0.4,0.2-0.6
		c0-0.1,0.1-0.2,0.1-0.3c0-0.1,0-0.1-0.1-0.2c-0.1,0-0.1,0-0.2,0c-0.1,0.1-0.5,0.4-1,0.8c-0.6,0.5-0.8,0.8-0.8,0.9
		c0,0-0.1,0.1-0.1,0.2c-0.1,0.1-0.2,0.3-0.3,0.5c-0.3,0.4-0.4,0.6-0.4,0.7c0,0.2,0,0.3-0.1,0.3c0,0-0.1,0.1-0.1,0.3
		c-0.1,0.1-0.1,0.3-0.2,0.5c-0.1,0.1-0.1,0.3-0.2,0.5C83,10.8,82.9,11,82.9,11h0c0,0.1-0.1,0.4-0.3,0.7c-0.1,0.3-0.2,0.5-0.2,0.6
		c0,0.1,0.1,0.1,0.3,0.1c0.5,0,1-0.1,1.7-0.3c0.2-0.1,0.4-0.1,0.4-0.1c0.1,0,0.3,0,0.5,0.1c0.2,0.1,0.3,0.3,0.4,0.5
		c0.1,0.3,0.1,0.4,0.1,0.5c0,0.1-0.2,0.1-0.5,0.3c-0.3,0.1-0.7,0.2-1,0.3c-0.5,0.1-0.9,0.2-1.2,0.2c-0.1,0-0.3,0.1-0.7,0.1
		c-0.4,0.1-0.6,0.1-0.6,0.2c-0.1,0-0.1,0-0.2,0.1c0,0.1-0.1,0.1-0.1,0.2c0,0.2,0,0.4-0.1,0.5c-0.1,0.2-0.2,0.7-0.4,1.5
		c-0.2,0.8-0.3,1.3-0.3,1.5c-0.1,0.2-0.2,0.4-0.2,0.8c-0.1,0.2-0.1,0.4-0.1,0.6c0,0.1,0,0.2,0,0.2c0,0.1,0,0.3,0,0.6
		c0,0.3,0,0.6,0,0.8l-0.1,0.7c0,0.2,0,0.4-0.1,0.5c0,0.2-0.1,0.3-0.2,0.4C79.9,22.8,79.8,22.7,79.7,22.7z"/>
	<path class="st1" d="M88.8,19.9c-0.4,0-0.8-0.1-1.1-0.3c-0.4-0.2-0.6-0.4-0.9-0.8c-0.2-0.3-0.4-0.5-0.4-0.8
		c-0.1-0.3-0.1-0.7-0.1-1.2c0-0.2,0-0.5,0-0.9c0-0.6,0.2-1.2,0.6-1.8c0.3-0.6,0.8-1.2,1.3-1.7c0.5-0.5,1-0.8,1.5-1
		c0.3-0.2,0.5-0.2,0.7-0.2c0.1,0,0.2,0,0.3,0c0.1,0,0.2,0,0.4,0c0.3,0,0.6,0.1,0.8,0.2c0.2,0.1,0.3,0.2,0.5,0.4
		c0.4,0.4,0.6,0.8,0.6,1.4c-0.1,0.4-0.3,0.8-0.7,1.3c-0.4,0.5-0.9,0.9-1.5,1.2c-0.3,0.1-0.6,0.1-1,0.1c-0.5,0-0.9-0.1-1.2-0.3
		c-0.1,0-0.3-0.1-0.3-0.1c-0.1,0-0.2,0.1-0.3,0.3c-0.1,0.2-0.1,0.5-0.2,1c0,0.1,0,0.3,0,0.5c0,0.8,0.3,1.2,0.8,1.3
		c0.4,0.1,0.6,0.1,0.8,0.1c0.2,0,0.4-0.1,0.6-0.2l0.4-0.3c0.1,0,0.2-0.1,0.3-0.2c0.1-0.1,0.1-0.1,0.2-0.2c0,0,0.1-0.1,0.1-0.2
		c0.1-0.1,0.1-0.1,0.2-0.1c0.1,0,0.1,0,0.2,0c0.1,0,0.1,0,0.2,0.1c0.1,0.1,0.1,0.1,0.2,0.2c0.1,0,0.2,0.1,0.1,0.3
		c-0.1,0.2-0.2,0.4-0.5,0.7c-0.3,0.3-0.6,0.5-0.9,0.7C89.8,19.7,89.4,19.9,88.8,19.9z M91,13.8c0.3-0.3,0.4-0.5,0.4-0.7
		c0-0.2-0.1-0.3-0.2-0.5c-0.1-0.1-0.3-0.2-0.6-0.2c-0.2,0-0.3,0-0.4,0c-0.2,0.1-0.5,0.2-0.8,0.5c-0.3,0.3-0.6,0.6-0.8,0.8
		c-0.2,0.3-0.3,0.4-0.3,0.5c0.1,0.1,0.4,0.2,0.9,0.2c0.4,0,0.7,0,0.9-0.1C90.5,14.3,90.7,14.1,91,13.8z"/>
	<path class="st1" d="M95.8,20c-0.6,0-1.1-0.2-1.4-0.5c-0.4-0.4-0.6-0.9-0.6-1.5c-0.1-0.7,0.1-1.5,0.5-2.6c0.4-1,0.8-1.9,1.4-2.6
		c0.4-0.5,0.7-0.8,1-1.1c0.3-0.3,0.5-0.5,0.8-0.6c0.3-0.1,0.7-0.2,1.1-0.2c0.3,0.1,0.6,0.2,0.8,0.4c0.3,0.2,0.4,0.3,0.4,0.5l0.1,0.1
		c0.1,0,0.2,0.1,0.3,0.3c0.1,0.2,0.1,0.5,0.1,0.7c0,0.2,0,0.4-0.1,0.6c-0.1,0.3-0.2,0.6-0.3,0.8c-0.1,0.2-0.3,0.3-0.4,0.3
		c-0.2,0-0.3,0-0.3,0.1c0,0.1,0,0.1-0.1,0.1c-0.1,0-0.2,0-0.3-0.1c-0.1-0.1-0.2-0.2-0.2-0.3c0,0,0-0.2,0.1-0.4
		c0.1-0.2,0.1-0.5,0.2-0.7c0-0.2,0.1-0.4,0.1-0.5c0-0.3-0.1-0.5-0.4-0.5c-0.1,0-0.3,0-0.4,0.1c-0.6,0.3-1.2,0.9-1.7,1.6
		c-0.5,0.8-0.9,1.8-1.2,3.1c-0.1,0.3-0.1,0.6-0.1,0.8c0,0.2,0,0.3,0,0.4c0,0.1,0.1,0.1,0.1,0.2c0.1,0,0.2,0,0.5,0
		c0.6,0,1-0.1,1.2-0.2c0.5-0.3,1.1-0.6,1.7-1.1c0.1,0,0.2-0.1,0.3-0.2c0.1-0.1,0.2-0.2,0.4-0.2c0.1-0.2,0.2-0.3,0.3-0.3
		c0.1,0,0.2-0.1,0.4-0.1c0.2,0.1,0.4,0.1,0.5,0.2c0.1,0.1,0.1,0.2,0,0.2c0,0-0.1,0-0.1,0c0,0,0,0.1,0,0.1c0,0.1-0.1,0.3-0.4,0.6
		c-0.3,0.3-0.6,0.6-0.9,0.9c-0.3,0.3-0.6,0.4-0.7,0.4c-0.1,0-0.1,0-0.2,0s-0.1,0.1-0.1,0.1s-0.2,0.2-0.7,0.4
		c-0.5,0.2-0.9,0.4-1.2,0.4C96.1,20,95.9,20,95.8,20z"/>
	<path class="st1" d="M103.1,19.5c-0.3-0.3-0.4-0.6-0.5-0.8c0,0,0-0.1,0-0.1c0,0-0.1-0.1-0.1-0.1c-0.1,0-0.1-0.3-0.1-0.8
		c0-0.4,0-0.8,0.1-1.2c0-0.4,0.1-0.7,0.2-1l0.4-1.2l0.3-0.9L104,12l-0.9-0.3c-0.1,0-0.2-0.1-0.3-0.2c-0.1-0.1-0.1-0.2-0.1-0.3
		c0-0.1,0.1-0.3,0.2-0.5c0.1-0.2,0.2-0.3,0.3-0.3c0,0,0.2,0,0.4,0c0.5,0,0.8,0,1.1-0.1c0.2-0.1,0.3-0.2,0.3-0.4
		c0.1-0.1,0.1-0.3,0.2-0.5c0.1-0.2,0.2-0.4,0.2-0.5c0-0.1,0.1-0.2,0.2-0.4c0.1-0.2,0.2-0.4,0.4-0.7c0,0,0.1-0.2,0.2-0.3
		c0.1-0.2,0.2-0.3,0.4-0.5c0.1-0.1,0.2-0.2,0.4-0.2c0.2,0,0.4,0.1,0.6,0.3c0,0,0.1,0.1,0.1,0.2c0.1,0.1,0.1,0.1,0.1,0.2
		c0,0.1-0.1,0.2-0.2,0.4c-0.1,0.2-0.2,0.4-0.3,0.5c-0.1,0.1-0.2,0.3-0.2,0.4c-0.2,0.3-0.3,0.5-0.4,0.7c-0.2,0.2-0.2,0.4-0.2,0.5
		c0,0.1,0.1,0.2,0.3,0.2c0.2,0,0.6,0,1.1-0.1c0.2,0,0.4,0,0.4,0c0.5,0,0.8,0.2,0.9,0.7c0,0.1,0,0.2,0,0.3c0,0.2-0.1,0.4-0.2,0.4
		c-0.1,0-0.5,0.1-1,0.1c-0.5,0.1-1,0.1-1.6,0.1c-0.1,0-0.2,0-0.3,0c-0.1,0-0.2,0-0.4,0.1c-0.1,0-0.2,0.1-0.3,0.1
		c-0.1,0.1-0.1,0.2-0.2,0.3c0,0-0.2,0.2-0.3,0.5c-0.2,0.5-0.4,0.7-0.4,0.8c-0.4,1.3-0.7,2.5-0.9,3.9c0,0.3,0,0.4,0,0.5
		c0,0.2,0.1,0.4,0.2,0.5c0.2,0.1,0.4,0.1,0.8,0.1c0.5,0,1-0.1,1.4-0.2c0.5-0.2,0.8-0.4,1.1-0.5c0.1-0.1,0.3-0.2,0.4-0.2
		c0.1-0.1,0.2-0.1,0.2-0.2c0-0.1,0.1-0.1,0.2-0.1c0.1,0,0.2,0.1,0.3,0.4c0,0.3-0.1,0.5-0.2,0.7c-0.1,0.2-0.4,0.4-0.8,0.7
		c-0.9,0.6-1.8,0.9-2.7,0.9c-0.3,0-0.5,0-0.7-0.1C103.6,20,103.4,19.8,103.1,19.5z"/>
	<path class="st0" d="M113.8,18.8l1.3-0.1v-7l-1.3-0.1v-0.7h2.1l0.1,1.5c0.3-0.5,0.6-0.9,1.1-1.2c0.5-0.3,1-0.4,1.7-0.4
		c0.9,0,1.6,0.3,2.1,0.9c0.5,0.6,0.7,1.5,0.7,2.7v4.4l1.3,0.1v0.7h-3.5v-0.7l1.3-0.1v-4.4c0-1-0.2-1.7-0.6-2.1
		c-0.4-0.4-0.9-0.6-1.6-0.6c-0.7,0-1.2,0.2-1.6,0.5c-0.4,0.4-0.7,0.8-0.9,1.4v5.2l1.3,0.1v0.7h-3.5V18.8z"/>
	<path class="st0" d="M123.5,15.1c0-1.3,0.3-2.3,1-3.1s1.6-1.2,2.8-1.2c1.2,0,2.1,0.4,2.8,1.2c0.7,0.8,1,1.9,1,3.1v0.3
		c0,1.3-0.3,2.3-1,3.1c-0.7,0.8-1.6,1.2-2.8,1.2c-1.2,0-2.1-0.4-2.8-1.2c-0.7-0.8-1-1.8-1-3.1V15.1z M124.5,15.4
		c0,1,0.3,1.8,0.8,2.5c0.5,0.7,1.2,1,2.1,1c0.9,0,1.6-0.3,2.1-1c0.5-0.7,0.8-1.5,0.8-2.5v-0.3c0-1-0.3-1.8-0.8-2.5
		c-0.5-0.7-1.2-1-2.1-1c-0.9,0-1.6,0.3-2.1,1c-0.5,0.7-0.8,1.5-0.8,2.5V15.4z"/>
	<path class="st0" d="M134.4,11.6l-1.1,0.1l1.4,5l0.3,1.5h0l0.4-1.5l1.8-5.8h0.8l1.8,5.8l0.4,1.6h0l0.4-1.6l1.4-5l-1.1-0.1v-0.7h2.9
		v0.7l-0.8,0.1l-2.3,7.8h-0.8l-1.9-5.9l-0.4-1.5h0l-0.4,1.5l-1.9,5.9h-0.8l-2.3-7.8l-0.8-0.1v-0.7h2.9V11.6z"/>
</g>
</svg>
